<svg width="245" height="56" viewBox="0 0 245 56" fill="none" xmlns="http://www.w3.org/2000/svg">
<rect y="1" width="244" height="54" rx="27" fill="#D31900"/>
<path d="M213.521 22.7056C213.781 22.3968 213.682 21.8254 213.225 21.7161C210.705 21.1141 207.657 21.3972 205.072 21.4018C204.097 21.4034 202.753 21.3162 201.491 21.4352C202.292 21.0508 203.054 20.5892 203.744 20.0466C205.621 18.5699 206.512 14.9267 204.661 13.0594C201.865 10.2381 198.02 14.0355 196.03 17.5025C195.178 14.227 192.791 10.7824 189.58 12.1564C187.334 13.1172 187.127 16.3521 187.947 18.2176C188.623 19.7571 190.305 20.9282 192.083 21.4927C188.003 21.057 183.896 20.9905 179.793 20.8037C179.39 20.7853 179.051 21.1514 179.052 21.5372C179.056 23.4791 178.669 25.9722 179.946 27.6173C179.979 27.6601 180.018 27.695 180.061 27.722C179.943 27.7672 179.824 27.8087 179.705 27.8578C179.315 28.0196 179.455 28.5571 179.881 28.4876C182.242 28.1028 184.594 28.1094 186.945 28.2554C186.982 28.2643 187.017 28.2654 187.051 28.2619C189.616 28.4257 192.179 28.7519 194.751 28.9204C195.059 28.9406 195.427 28.6798 195.48 28.3713C195.767 26.6833 196.376 24.3169 195.863 22.6507C195.848 22.6034 195.823 22.5697 195.802 22.5307C195.875 22.5561 195.953 22.5755 196.04 22.5803C196.763 22.6196 197.488 22.5764 198.203 22.467C198.096 22.5983 198.02 22.7412 197.957 22.8893C197.869 22.9499 197.818 23.0538 197.864 23.1571C197.719 23.6898 197.753 24.286 197.733 24.8468C197.695 25.9586 197.717 27.0692 197.86 28.1724C197.933 28.7323 198.585 28.8003 198.801 28.3781C201.097 28.2193 203.375 28.0128 205.679 27.9852C208.05 27.957 210.229 28.5343 212.546 28.7584C212.76 28.7789 212.906 28.695 212.997 28.5684C213.111 28.5199 213.207 28.4329 213.247 28.2935C213.543 27.2523 213.806 26.2206 213.931 25.1444C214.015 24.4172 214.135 23.2546 213.521 22.7056ZM180.732 27.4862C180.739 27.4289 180.738 27.367 180.715 27.2962C180.344 26.1443 180.353 24.8734 180.421 23.6214C180.688 24.171 181.032 24.6815 181.412 25.1671C181.813 25.6794 182.323 26.4605 182.896 26.9777C182.172 27.092 181.45 27.2547 180.732 27.4862ZM183.831 26.8585C183.469 26.2294 182.667 25.684 182.185 25.167C181.504 24.4353 180.885 23.6295 180.482 22.7129C180.481 22.7093 180.478 22.7078 180.476 22.7045C180.484 22.5713 180.493 22.4381 180.5 22.3066C180.56 22.3096 180.62 22.3119 180.679 22.3151C181.423 23.3927 182.356 24.3341 183.308 25.2322C183.832 25.7265 184.378 26.27 184.949 26.7841C184.575 26.7996 184.202 26.8216 183.831 26.8585ZM186.335 26.7707C185.61 26.1633 184.787 25.624 184.087 25.0443C183.082 24.2129 182.153 23.3202 181.303 22.345C181.997 22.3781 182.691 22.4082 183.386 22.4381C183.399 22.4683 183.411 22.4986 183.435 22.527C184.389 23.6556 185.436 24.6872 186.548 25.6624C186.946 26.0117 187.407 26.4506 187.9 26.839C187.376 26.8062 186.854 26.7797 186.335 26.7707ZM189.629 26.9755C188.805 26.1928 187.671 25.606 186.801 24.8742C185.914 24.1277 185.076 23.3178 184.277 22.4769C184.933 22.5055 185.588 22.5371 186.244 22.5698C186.246 22.651 186.278 22.7329 186.359 22.7932C187.478 23.6236 188.485 24.5441 189.479 25.5154C190.007 26.0323 190.554 26.6181 191.151 27.1214C190.642 27.0714 190.134 27.0216 189.629 26.9755ZM192.836 27.2643C191.867 26.3495 190.709 25.5931 189.699 24.7129C188.851 23.9737 187.996 23.2449 187.066 22.6124C188.058 22.6666 189.05 22.7342 190.04 22.8152C190.483 23.7043 191.141 24.4791 191.839 25.184C192.407 25.7577 193.139 26.5079 193.92 26.9674C193.707 27.2095 193.382 27.2828 192.836 27.2643ZM194.349 25.11C194.322 25.4384 194.293 25.7052 194.261 25.9454C193.721 25.5518 193.136 25.1954 192.639 24.7748C191.967 24.2061 191.334 23.5891 190.821 22.8806C191.979 22.987 193.136 23.1189 194.288 23.293C194.36 23.3038 194.427 23.3035 194.493 23.2978C194.385 23.892 194.396 24.5197 194.349 25.11ZM190.498 18.8554C188.836 17.5365 188.62 12.2322 191.618 13.5814C193.838 14.5803 195.202 18.3473 194.768 20.5653C194.77 20.5655 194.773 20.5658 194.775 20.5662C194.767 20.6121 194.758 20.658 194.752 20.7023C193.146 20.4918 191.778 19.8717 190.498 18.8554ZM195.219 22.2252C195.158 22.0469 195.013 21.904 194.775 21.8443C194.853 21.8382 194.932 21.8356 195.009 21.8261C195.115 21.8129 195.2 21.7759 195.274 21.73C195.271 21.9047 195.319 22.0818 195.416 22.2302C195.352 22.2183 195.285 22.2168 195.219 22.2252ZM212.483 23.0158C212.361 23.6694 212.596 24.4715 212.567 25.1442C212.558 25.3411 212.542 25.5382 212.53 25.7353C212.139 25.1418 211.45 24.6315 210.958 24.1466C210.598 23.7906 210.23 23.4399 209.85 23.1042C210.747 23.1371 211.637 23.1306 212.483 23.0158ZM196.271 21.0091C196.274 20.9982 196.278 20.9892 196.281 20.9778C196.301 20.8746 196.317 20.7671 196.331 20.6558C196.724 18.1682 200.048 13.3668 202.949 13.7563C204.5 13.9642 204.005 16.9406 203.658 17.6974C203.196 18.7086 202.112 19.3557 201.184 19.87C199.743 20.6696 197.927 21.0588 196.271 21.0091ZM198.947 27.3754C199.008 26.6561 199.035 25.9351 199.076 25.2125C199.09 24.9748 199.123 24.7327 199.157 24.4895C199.493 24.8529 199.822 25.2221 200.148 25.5937C200.519 26.0169 200.91 26.5402 201.351 26.9788C200.544 27.0971 199.74 27.2268 198.947 27.3754ZM202.468 26.8256C201.946 26.2022 201.194 25.6594 200.646 25.1003C200.187 24.6311 199.727 24.1662 199.247 23.7226C199.266 23.4411 199.262 23.163 199.204 22.8939C199.461 22.958 199.731 23.0031 200.01 23.0358C200.95 23.8768 201.842 24.768 202.77 25.6205C203.067 25.8921 203.463 26.3295 203.893 26.6781C203.418 26.7202 202.942 26.768 202.468 26.8256ZM206.526 26.5475C206.1 26.5492 205.671 26.5643 205.243 26.5852C205.07 26.3427 204.805 26.1912 204.553 26.0147C204.049 25.6614 203.576 25.2638 203.103 24.8723C202.385 24.2785 201.67 23.6806 200.945 23.0961C201.419 23.1071 201.908 23.0911 202.399 23.065C202.39 23.153 202.416 23.2418 202.503 23.3084C203.47 24.0513 204.405 24.8325 205.353 25.5984C205.725 25.8989 206.121 26.2367 206.537 26.5475C206.533 26.5475 206.53 26.5475 206.526 26.5475ZM208.208 26.556C207.453 25.9968 206.585 25.5433 205.834 24.9827C204.964 24.3347 204.134 23.6396 203.251 23.012C204.065 22.9547 204.857 22.8933 205.575 22.8883C206.572 23.7175 207.492 24.6245 208.428 25.5213C208.788 25.8668 209.159 26.259 209.547 26.6355C209.1 26.5918 208.65 26.5666 208.208 26.556ZM211.358 26.9775C210.552 26.1563 209.507 25.4548 208.663 24.7041C207.956 24.075 207.22 23.4793 206.465 22.9069C207.198 22.9385 207.96 22.9987 208.728 23.048C209.301 23.5836 209.848 24.1409 210.374 24.7246C210.884 25.2902 211.396 26.1234 212.079 26.4849C212.221 26.5604 212.365 26.549 212.479 26.4864C212.454 26.7939 212.428 27.1012 212.404 27.4087C212.077 27.2296 211.725 27.0903 211.358 26.9775Z" fill="white"/>
<path d="M195.008 34.4345C195.004 33.2974 194.921 32.1629 194.698 31.0399C194.634 30.7179 194.291 30.5 193.977 30.4967C190.16 30.4578 185.959 29.6663 182.362 31.2933C181.978 31.4669 182.059 31.953 182.334 32.1688C181.408 35.6718 181.834 39.3935 181.851 42.9759C181.853 43.4167 182.205 43.72 182.63 43.747C186.068 43.9661 189.505 43.759 192.946 43.7347C193.161 43.7332 193.327 43.6576 193.448 43.544C193.781 43.6779 194.236 43.5411 194.337 43.1443C194.778 41.4091 194.713 39.4232 194.86 37.6393C194.941 36.6498 195.001 35.657 195.006 34.6656C195.037 34.5945 195.042 34.513 195.008 34.4345ZM193.459 33.011C193.358 32.9245 193.254 32.8387 193.157 32.7494C192.862 32.4777 192.585 32.1908 192.309 31.9019C192.655 31.9221 193.003 31.9469 193.344 31.9592C193.397 32.3086 193.432 32.6596 193.459 33.011ZM183.393 42.243C183.373 41.3407 183.34 40.441 183.306 39.5426C183.878 40.3698 184.591 41.1394 185.251 41.84C185.401 42 185.554 42.1576 185.715 42.3032C184.941 42.2968 184.167 42.2799 183.393 42.243ZM189.571 42.2619C189.554 42.2408 189.537 42.221 189.529 42.2103C189.021 41.5703 188.427 41.0872 187.807 40.5568C186.317 39.2818 184.995 37.8186 183.874 36.2176C183.696 35.9632 183.284 36.1906 183.449 36.4632C184.415 38.0583 185.633 39.4458 186.965 40.752C187.49 41.2671 188.014 41.7415 188.488 42.2777C188.021 42.2849 187.554 42.2948 187.087 42.2981C187.087 42.2406 187.083 42.1827 187.068 42.1253C187.009 41.889 186.726 41.8492 186.558 41.9609C186.459 41.8863 186.36 41.8123 186.264 41.734C185.829 41.3797 185.434 40.9765 185.045 40.5751C184.433 39.944 183.762 39.2748 183.268 38.5318C183.206 36.7914 183.166 35.053 183.23 33.3065C185.876 36.5778 190.079 38.6407 192.26 42.2265C191.364 42.2344 190.467 42.2459 189.571 42.2619ZM193.365 37.6393C193.271 38.9045 192.987 40.2983 192.973 41.6293C192.257 40.2068 190.542 38.9897 189.494 38.0842C187.395 36.2721 184.999 34.5809 183.274 32.3809C183.28 32.2873 183.281 32.1938 183.288 32.1001C183.5 32.042 183.714 31.991 183.929 31.9454C185.029 33.5275 186.739 34.8478 188.135 36.1244C189.175 37.0747 190.454 38.7078 191.831 39.192C192.103 39.2875 192.31 38.9587 192.185 38.7357C191.538 37.579 189.919 36.6707 188.93 35.8267C187.435 34.5492 185.943 33.2501 184.587 31.8253C185.087 31.7469 185.595 31.705 186.106 31.6763C185.866 32.1278 188.079 34.04 188.303 34.2584C189.175 35.1096 190.061 35.947 190.964 36.7661C191.45 37.2062 192.231 38.1802 192.946 38.2014C193.142 38.2073 193.351 37.9821 193.267 37.784C193.041 37.2528 192.333 36.9033 191.896 36.5497C191.109 35.9143 190.345 35.2512 189.585 34.5855C188.544 33.6734 187.285 32.3167 186.199 31.8159C186.296 31.8604 186.363 31.7401 186.281 31.6778C186.277 31.6738 186.271 31.6719 186.267 31.6682C187.151 31.6265 188.047 31.6462 188.944 31.691C189.587 32.6006 190.319 33.4426 191.106 34.2369C191.726 34.8631 192.561 35.7506 193.459 36.2477C193.433 36.7126 193.399 37.177 193.365 37.6393ZM193.502 35.269C192.929 34.8748 192.347 34.4884 191.82 34.0224C191.026 33.322 190.274 32.5505 189.596 31.7285C190.249 31.7685 190.902 31.8165 191.55 31.8602C191.868 32.2426 192.206 32.6107 192.546 32.972C192.85 33.295 193.167 33.644 193.506 33.9663C193.516 34.4 193.516 34.8344 193.502 35.269Z" fill="white"/>
<path d="M211.006 36.9534C210.879 35.5934 210.818 33.8291 210.071 32.6359C210.144 32.604 210.214 32.5691 210.276 32.5268C210.568 32.3294 210.735 31.829 210.401 31.5713C209.817 31.1216 209.015 31.1771 208.307 31.0933C206.647 30.8972 204.988 30.7076 203.322 30.582C202.884 30.5487 202.308 30.4864 201.686 30.4466C201.666 30.4211 201.645 30.3972 201.626 30.3716C201.514 30.224 201.295 30.2901 201.256 30.4223C200.484 30.3902 199.668 30.4093 198.958 30.5748C198.87 30.5357 198.766 30.5667 198.716 30.6345C198.062 30.8263 197.52 31.1617 197.224 31.7254C196.102 33.8607 196.73 37.2738 196.944 39.5418C196.985 39.9776 197.175 44.1038 198.367 43.2031C198.442 43.3876 198.609 43.5352 198.877 43.5454C202.828 43.6954 206.772 43.4759 210.689 42.9517C211.024 42.9069 211.261 42.5167 211.26 42.2098C211.25 40.4532 211.167 38.7032 211.006 36.9534ZM208.849 32.8159C208.837 33.3459 208.904 33.8866 208.996 34.4294C208.964 34.3967 208.931 34.364 208.901 34.3319C208.323 33.7235 207.737 33.1392 207.092 32.6069C207.685 32.7133 208.297 32.8036 208.849 32.8159ZM206.389 32.4741C206.372 32.5443 206.384 32.6192 206.448 32.6751C207.114 33.2494 207.728 33.8753 208.316 34.5275C208.643 34.8912 208.93 35.3282 209.243 35.7329C209.307 36.0703 209.368 36.4057 209.411 36.7376C208.859 36.2479 208.346 35.713 207.832 35.1853C206.885 34.2129 205.986 33.1916 205.025 32.2318C205.383 32.2728 205.863 32.3703 206.389 32.4741ZM204.464 32.1655C205.694 33.4636 206.772 34.8951 207.943 36.2439C208.27 36.6201 208.868 37.4551 209.514 37.909C209.549 38.3281 209.591 38.7469 209.613 39.1669C207.499 36.695 205.087 34.468 202.953 31.9925C203.545 32.0511 204.077 32.1179 204.464 32.1655ZM201.1 42.2882C200.866 42.1863 200.66 41.9521 200.489 41.7842C199.947 41.2509 199.457 40.6591 198.963 40.082C198.918 40.0296 198.849 40.0392 198.801 40.075C198.693 39.956 198.629 39.8443 198.628 39.6577C198.628 39.6454 198.608 39.6454 198.609 39.6577C198.609 39.8667 198.668 39.9637 198.789 40.0917C198.753 40.1288 198.733 40.1808 198.77 40.2293C199.317 40.9427 199.874 41.6484 200.472 42.3211C199.94 42.3494 199.408 42.3799 198.876 42.4052C198.805 42.4087 198.746 42.4289 198.689 42.4497C198.803 41.3957 198.384 39.6584 198.342 39.0592C198.306 38.5438 198.264 38.0122 198.229 37.4729C199.041 38.6617 200.124 39.7091 201.125 40.7019C201.436 41.0099 202.024 41.6989 202.652 42.191C202.134 42.225 201.617 42.259 201.1 42.2882ZM203.938 42.1014C201.755 40.653 199.517 38.6384 198.176 36.393C198.159 35.8993 198.163 35.4055 198.182 34.9151C199.364 36.1204 200.487 37.3866 201.608 38.6448C202.553 39.7049 203.48 41.0562 204.59 42.0467C204.372 42.0634 204.156 42.0854 203.938 42.1014ZM205.578 41.9631C204.699 40.7173 203.44 39.6382 202.41 38.5381C201.054 37.0912 199.683 35.6553 198.214 34.3188C198.264 33.7186 198.353 33.1286 198.506 32.5626C199.961 34.315 201.516 35.9998 203.032 37.6926C203.95 38.7177 204.873 39.7388 205.813 40.7443C206.13 41.0832 206.545 41.642 207.051 41.725C207.308 41.7671 207.591 41.4436 207.338 41.2381C205.855 40.0338 204.529 38.2956 203.202 36.9094C201.716 35.358 200.253 33.7851 198.775 32.2265C198.954 32.1053 199.219 32.0237 199.531 31.9679C201.044 34.0301 202.777 35.961 204.479 37.8552C205.31 38.7809 206.718 40.7357 208.173 41.7109C207.309 41.8038 206.444 41.8891 205.578 41.9631ZM209.679 41.5386C207.775 40.3939 206.173 38.4977 204.652 36.941C203.069 35.3199 201.507 33.6493 200.059 31.899C200.72 31.8466 201.511 31.8755 202.268 31.9331C203.271 33.2568 204.358 34.5183 205.45 35.7689C206.677 37.1739 207.962 38.9134 209.581 39.8739C209.603 39.8871 209.624 39.8922 209.646 39.8987C209.668 40.4447 209.685 40.991 209.694 41.5375C209.689 41.5375 209.684 41.5379 209.679 41.5386Z" fill="white"/>
<path d="M219.35 56H25.6498C11.4838 56 0 43.464 0 28C0 12.536 11.4838 0 25.6498 0H62.7168C63.25 0 63.6823 0.432277 63.6823 0.965517C63.6823 1.49876 63.25 1.93103 62.7168 1.93103H25.6498C12.4608 1.93103 1.76895 13.6025 1.76895 28C1.76895 42.3975 12.4608 54.069 25.6498 54.069H219.35C232.268 54.069 242.79 42.8734 243.218 28.8861C243.232 28.3979 243.627 28 244.116 28C244.604 28 245.001 28.3981 244.987 28.8864C244.559 43.9402 233.245 56 219.35 56Z" fill="#D31900"/>
</svg>
