<svg width="232" height="24" viewBox="0 0 232 24" fill="none" xmlns="http://www.w3.org/2000/svg">
<path d="M14.992 15.664C14.992 15.248 14.8 13.808 13.904 12.656C13.68 12.336 13.328 12.08 12.944 11.856C12.432 11.568 11.792 11.312 11.024 10.992C11.696 10.832 12.88 9.936 13.328 8.912C13.488 8.56 13.648 7.952 13.712 7.536C13.776 7.184 13.84 6.8 13.84 6.416C13.84 6.192 13.776 5.776 13.744 5.584C13.648 5.136 13.488 4.72 13.232 4.336C13.072 4.112 12.912 3.888 12.688 3.696C12.496 3.504 12.272 3.28 12.048 3.12C11.824 2.96 11.6 2.864 11.376 2.736C10.928 2.48 10.448 2.224 9.936 2.032C9.456 1.904 8.976 1.872 8.56 1.776C7.696 1.648 6.896 1.552 6.032 1.52H5.552C5.168 1.52 4.816 1.52 4.464 1.552L2.96 1.648C3.504 1.904 4.496 1.744 5.264 1.776C5.04 1.904 5.04 2.064 4.624 2.16H4.08C4.08 2.096 4.048 2.064 3.984 2.064C3.92 2.064 3.888 2.096 3.856 2.16C3.632 2.16 3.408 2.192 3.184 2.224C3.024 2.288 2.96 2.32 2.96 2.352C2.96 2.448 3.28 2.48 3.408 2.576H3.44C3.472 2.608 3.472 2.608 3.472 2.64L2.896 2.512C2.608 2.48 2.288 2.384 2 2.288C1.776 2.224 1.552 2.192 1.36 2.192C1.2 2.192 1.104 2.192 1.04 2.224C0.624 5.072 0.368 7.856 0.272 10.576C0.24 11.76 0.24 13.008 0.24 14.192V15.664C0.24 17.712 0.24 19.6 0.272 21.52C0.304 21.488 0.368 21.488 0.4 21.488C0.528 21.488 0.624 21.552 0.72 21.552C0.816 21.552 0.88 21.52 0.944 21.456C1.104 21.392 1.104 21.36 1.232 21.264L1.328 21.296C1.328 21.392 1.392 21.488 1.424 21.584C1.424 21.68 1.744 21.936 1.84 22.192C1.872 22.288 1.904 22.352 1.904 22.416C1.904 22.448 1.872 22.48 1.84 22.576C1.744 22.672 1.584 22.704 1.36 22.704H7.696C9.328 22.608 10.768 22.096 11.952 21.328C12.304 21.104 12.592 20.752 12.88 20.496C13.232 20.176 13.552 19.92 13.808 19.568C14.064 19.216 14.192 18.864 14.384 18.48C14.8 17.616 14.992 16.656 14.992 15.664ZM4.624 4.784H5.488C6.992 4.816 8.08 5.072 8.784 5.584C9.136 5.808 9.616 6.096 9.616 6.48C9.616 6.832 10 7.504 9.456 8.496C9.328 8.784 9.104 9.008 8.848 9.2C8.016 9.776 6.576 9.968 4.432 9.808C4.464 8.624 4.496 6.128 4.592 5.008C4.624 4.976 4.624 4.88 4.624 4.784ZM10.96 15.728C10.96 16.272 10.8 16.784 10.448 17.296C10.352 17.456 9.904 17.904 9.776 18.064C8.88 19.056 7.728 19.44 5.744 19.44H4.208L4.176 17.712V17.36C4.144 17.072 4.112 16.784 4.112 16.496C4.112 15.696 4.208 14.864 4.176 14.064C4.144 12.816 4.272 12.272 4.4 10.736C4.528 10.864 4.592 10.992 4.624 11.088C4.624 11.248 4.432 11.408 4.4 11.568C4.4 11.728 4.464 11.888 4.592 12.016C4.592 12.048 4.88 12.272 5.104 12.56C5.36 12.816 4.944 12.752 4.944 13.136C5.456 12.976 6.032 12.848 6.544 12.624C6.544 12.72 6.608 12.816 6.64 12.912C7.568 12.912 8.208 13.072 8.88 13.2C9.424 13.296 9.968 13.744 10.288 13.968C10.864 14.448 10.96 14.928 10.96 15.728ZM31.549 4.144L31.453 3.888C30.813 3.504 30.141 3.184 29.533 2.896C28.797 2.608 28.125 2.384 27.389 2.16C26.621 1.936 25.789 1.776 24.925 1.776C24.445 1.776 23.997 1.808 23.517 1.936C23.101 2.032 22.621 2.096 22.205 2.32C21.725 2.544 21.341 2.8 20.925 3.088C20.573 3.344 20.221 3.664 19.901 4.016C19.645 4.4 19.357 4.752 19.133 5.104L18.557 6.256C18.205 6.992 18.045 7.696 17.885 8.432C17.725 9.168 17.629 9.808 17.533 10.416L17.501 10.608C17.437 11.312 17.405 11.984 17.405 12.656V13.328C17.405 14.224 17.501 15.152 17.725 16.144C17.853 16.624 18.013 17.104 18.173 17.616C18.333 18.096 18.557 18.544 18.909 19.024C19.165 19.504 19.549 19.952 19.933 20.368C20.413 20.752 20.861 21.136 21.373 21.392C21.917 21.744 22.589 21.968 23.197 22.128C23.869 22.256 24.445 22.288 25.085 22.288C25.693 22.288 26.301 22.256 26.813 22.16C27.421 22.032 27.965 21.968 28.445 21.744C29.405 21.424 30.461 20.88 32.349 19.664C32.221 19.632 32.189 19.536 32.093 19.44C31.997 19.312 31.997 19.216 31.837 19.184C31.613 19.184 31.357 19.184 31.133 19.152C30.845 19.088 30.717 18.992 30.685 18.864C30.685 18.768 30.749 18.672 30.845 18.512C30.973 18.352 31.037 18.16 31.133 18.064C31.133 17.776 30.941 17.712 30.781 17.616C30.749 17.52 30.653 17.552 30.429 17.456C30.301 17.424 30.045 17.36 29.917 17.264C29.757 17.136 29.789 17.072 29.789 16.976C29.789 16.816 30.109 16.752 30.141 16.368C28.605 17.424 28.093 17.808 27.133 18.096C26.525 18.288 25.949 18.352 25.437 18.384L25.053 18.416C24.637 18.416 24.253 18.352 23.901 18.256C23.421 18.128 23.101 17.904 22.749 17.616C22.397 17.328 22.205 16.976 21.949 16.496C21.725 15.984 21.597 15.44 21.501 14.832C21.437 14.192 21.405 13.552 21.405 12.88C21.405 12.208 21.469 11.568 21.565 10.832C21.661 10.16 21.757 9.52 21.917 8.88C22.141 8.272 22.301 7.792 22.525 7.312C22.621 7.088 22.749 6.896 22.941 6.704C23.037 6.544 23.197 6.384 23.357 6.256C23.485 6.128 23.613 6.032 23.837 5.936C23.997 5.84 24.157 5.776 24.381 5.744C24.477 5.712 24.605 5.712 24.829 5.712C25.181 5.712 25.533 5.744 25.853 5.84C26.237 5.936 26.621 5.968 26.973 6.096C27.357 6.256 27.677 6.352 28.093 6.512C28.861 6.8 29.597 7.184 30.301 7.632C30.557 7.248 29.405 6.96 28.925 6.608L28.029 6.224C27.741 6.224 27.325 5.872 27.037 5.776C27.165 5.744 27.229 5.68 27.453 5.648C27.485 5.648 27.517 5.616 27.613 5.616C27.741 5.616 27.901 5.648 28.093 5.712C28.445 5.808 28.861 6 29.277 6.256C29.693 6.48 30.109 6.736 30.461 6.832C30.621 6.896 30.717 6.928 30.781 6.928C30.781 6.864 30.781 6.832 30.749 6.8L30.237 6.32C30.141 6.224 30.109 6.096 30.109 5.968C30.109 5.872 30.109 5.808 30.141 5.776L30.429 5.52C30.557 5.264 30.877 5.04 31.133 4.816C31.357 4.656 31.549 4.432 31.549 4.144ZM46.137 18.768C45.305 18.544 44.505 18.384 43.737 18.288C42.713 18.128 42.361 18.128 41.369 18.032C40.761 18 40.089 17.968 39.481 17.968C39.481 16.816 39.545 15.728 39.641 14.608L39.673 14.032C40.217 14 40.793 13.968 41.305 13.872L45.913 13.52L45.881 12.88C45.785 12.624 45.657 12.368 45.657 12.08C45.657 11.792 45.785 11.728 45.817 11.504V11.344C45.817 11.216 45.817 11.056 45.785 10.928C45.785 10.832 45.593 10.192 45.593 9.808C45.593 9.648 45.625 9.552 45.689 9.552C45.305 9.584 44.889 9.616 44.409 9.712L42.457 9.84C41.785 9.84 41.113 9.808 40.377 9.904L39.929 9.936V6.672C40.217 6.672 40.505 6.704 40.793 6.736C41.977 6.736 42.969 6.864 43.961 6.96C44.697 6.992 45.337 6.96 46.073 7.056L47.385 7.12C47.321 6.832 46.809 6.896 46.425 6.8C46.521 6.64 46.521 6.416 46.745 6.384L47.225 6.416C47.321 6.416 47.385 6.416 47.417 6.384C47.481 6.352 47.513 6.32 47.513 6.288C47.513 6.192 47.385 6.128 47.353 6.032C47.321 5.968 47.321 5.872 47.321 5.776C47.321 5.616 47.353 5.456 47.385 5.232C47.481 4.944 47.513 4.656 47.609 4.304C47.673 4.048 47.705 3.792 47.705 3.536V3.376C46.969 3.216 46.297 3.12 45.561 2.992C44.889 2.896 44.153 2.864 43.481 2.832C42.617 2.8 41.785 2.768 40.921 2.768H39.097C39.097 2.48 39.097 2.16 39.001 1.936C38.969 1.808 38.905 1.744 38.873 1.744C38.777 1.744 38.777 2.064 38.649 2.224C38.553 2.352 38.457 2.416 38.329 2.416L37.977 2.384H37.849C37.593 2.384 37.369 2.32 37.081 2.288L36.793 2.256C36.569 2.256 36.377 2.288 36.217 2.384C36.249 3.248 36.281 4.016 36.281 4.88V6.64C36.281 8.016 36.185 9.424 36.153 10.832L35.929 16.144C35.897 17.072 35.865 17.968 35.865 18.96C35.865 20.112 35.897 21.264 35.929 22.416C35.961 22.384 36.025 22.384 36.089 22.384L36.345 22.416C36.377 22.416 36.441 22.384 36.537 22.352C36.793 22.128 36.985 21.872 37.273 21.872L37.817 22.32C37.913 22.352 37.977 22.384 38.009 22.384C38.105 22.384 38.233 22.32 38.329 22.288C38.425 22.288 38.681 22.096 39.033 22L39.289 21.936L39.609 21.872H39.897C41.177 21.872 41.753 22.064 43.961 22.448C44.729 22.576 45.561 22.64 46.361 22.864C46.905 23.024 47.385 23.024 47.897 23.152C47.929 22.864 47.257 22.8 46.777 22.64C46.937 22.512 47.001 22.352 47.225 22.256C47.449 22.256 47.641 22.416 47.865 22.416C47.929 22.416 47.961 22.416 47.993 22.384C48.089 22.352 48.121 22.32 48.121 22.288C48.121 22.192 48.025 22.128 47.929 22L47.897 21.84C47.897 21.616 47.993 21.424 48.025 21.264C48.121 20.912 48.249 20.656 48.377 20.304C48.473 20.048 48.505 19.792 48.505 19.504V19.376C47.705 19.152 46.937 18.992 46.137 18.768ZM45.689 9.552C45.721 9.552 45.721 9.552 45.721 9.552H45.689ZM62.8203 3.792L62.6603 3.888C61.8923 4.496 61.2203 5.296 60.6763 6.032C60.1643 6.896 59.7163 7.696 59.3643 8.56C59.0443 9.424 58.7883 10.32 58.5963 11.248C58.5003 11.984 58.4363 12.656 58.4363 13.392L58.4683 14.032C58.5003 15.024 58.6603 15.952 58.9483 16.88C59.1083 17.392 59.2682 17.808 59.5243 18.288C59.7803 18.768 60.0683 19.28 60.4203 19.664C60.7723 20.08 61.1243 20.496 61.6043 20.88C62.1163 21.232 62.6283 21.456 63.1083 21.68C63.7163 21.904 64.1963 22.096 64.7403 22.128H64.9323L65.0283 22.16C65.3483 22.224 65.6363 22.256 65.9243 22.256C66.1163 22.256 66.2443 22.256 66.3403 22.224C67.0123 22.192 67.6203 22.096 68.1963 21.936L68.6443 21.84L68.9963 21.712C69.3803 21.616 69.6683 21.456 70.0203 21.296C70.6283 20.976 71.2043 20.624 71.6843 20.208C72.1643 19.792 72.6123 19.312 72.9643 18.8C73.7643 17.776 74.2443 16.784 74.6603 15.6C75.0443 14.544 75.2362 13.36 75.3323 12.208L75.3643 11.376C75.3643 10.992 75.3323 10.576 75.3003 10.192C75.2362 9.456 75.1083 8.784 74.9163 8.112L74.8203 7.824C74.6603 7.28 74.3403 6.672 74.0843 6.128C73.7323 5.456 73.2843 4.816 72.8043 4.272C72.5163 3.984 72.2603 3.792 71.9083 3.536L71.4603 3.12L70.9483 2.864C70.5963 2.64 70.1803 2.384 69.7003 2.288C69.3483 2.192 68.9323 2.096 68.5163 2.096H67.1723L66.1163 2.352C65.5083 2.512 65.0283 2.576 64.6443 2.672C64.7083 2.704 64.7403 2.768 64.7403 2.8L64.7723 3.12C64.7723 3.248 64.8043 3.312 64.8683 3.344L65.5723 3.696C65.7323 3.76 65.8603 3.856 65.8923 3.952V4.176C65.8923 4.272 65.7003 4.336 65.5403 4.432C65.3163 4.592 65.1883 4.656 65.0923 4.752C65.0603 4.784 65.0283 4.88 65.0283 4.976V5.104C65.1243 5.2 65.1562 5.264 65.1883 5.36C65.1883 5.424 65.3163 5.52 65.5723 5.616C65.7963 5.776 65.9243 5.84 66.0523 6.064C66.0843 6.096 66.1483 6.16 66.1803 6.256C66.1803 6.384 66.1803 6.448 66.1483 6.48C66.1483 6.576 65.7963 6.736 66.3403 6.704L67.1083 6.48C67.3963 6.416 67.6203 6.384 67.8123 6.384C68.0363 6.352 68.1323 6.32 68.2603 6.32L68.5803 6.352L68.9963 6.544L69.1883 6.704C69.2843 6.736 69.3483 6.8 69.4443 6.896L69.8603 7.312C70.2123 7.792 70.5643 8.272 70.7883 8.88L70.8523 9.104C71.0123 9.68 71.1083 10.256 71.1403 10.832V11.312C71.1403 12.56 70.9163 13.776 70.4363 14.896C70.0843 15.632 69.7323 16.112 69.3163 16.592C69.0923 16.816 68.8683 17.008 68.5803 17.168C68.3563 17.36 68.1323 17.488 67.8443 17.552L67.7483 17.616C67.5243 17.648 67.4923 17.68 67.3963 17.68C67.2363 17.776 67.1083 17.808 66.8843 17.84C66.5323 17.872 66.2443 17.84 65.9563 17.936C65.6042 17.904 65.3483 17.872 65.0923 17.776C64.8683 17.744 64.6443 17.648 64.4523 17.52C64.2283 17.424 64.1003 17.264 63.9403 17.104C63.7803 16.944 63.5883 16.752 63.4283 16.464C63.2043 16.176 63.1403 15.824 63.0123 15.44C62.9163 15.216 62.8523 14.992 62.8203 14.736C62.7243 14.32 62.6923 13.904 62.6923 13.424C62.6923 13.2 62.6923 12.944 62.7243 12.72C62.8203 11.984 62.8523 11.28 63.0763 10.608C63.3643 9.744 63.7483 8.944 64.2283 8.208C64.7403 7.472 65.2843 6.864 65.9563 6.544C65.5723 6.448 64.9963 7.024 64.4523 7.568C64.2923 7.824 64.1003 8.048 63.8763 8.304C63.6523 8.592 63.4283 8.912 63.2683 9.264C63.2363 9.104 63.2043 8.944 63.2043 8.816V8.688C63.2043 8.464 63.2683 8.272 63.3643 8.08C63.5243 7.696 63.8123 7.312 64.2283 6.96C64.4523 6.8 64.6123 6.608 64.7723 6.448C64.9963 6.32 65.1243 6.192 65.2203 6.032C65.4443 5.872 65.4763 5.84 65.4763 5.744C65.4763 5.712 65.4443 5.712 65.3802 5.712C65.1562 5.712 64.7083 5.968 64.6123 6C64.5163 6 64.4523 6.032 64.3563 6.032C64.2603 6.032 64.1643 6 64.0683 5.904L63.9083 5.52C63.7803 5.392 63.7163 5.2 63.6843 5.072L63.5243 4.528L63.4923 4.272C63.4603 4.144 63.3963 4.048 63.3323 4.016C63.2363 3.856 63.0763 3.792 62.8203 3.792ZM90.6403 21.872L90.9603 6.672C91.2483 6.672 91.5363 6.704 91.8243 6.736C93.0083 6.736 94.8643 6.864 95.8563 6.96C96.5923 6.992 97.6163 6.96 98.3523 7.056L99.6643 7.12C99.6003 6.832 99.0883 6.896 98.7043 6.8C98.8003 6.64 98.8003 6.416 99.0243 6.384L99.5043 6.416C99.6003 6.416 99.6643 6.416 99.6963 6.384C99.7603 6.352 99.7923 6.32 99.7923 6.288C99.7923 6.192 99.6643 6.128 99.6323 6.032C99.6003 5.968 99.6003 5.872 99.6003 5.776C99.6003 5.616 99.6323 5.456 99.6643 5.232C99.7603 4.944 99.7923 4.656 99.8883 4.304C99.9523 4.048 99.9843 3.792 99.9843 3.536V3.376C99.2483 3.216 98.5763 3.12 97.8403 2.992C97.1683 2.896 96.0483 2.864 95.3763 2.832C94.5123 2.8 92.8163 2.768 91.9523 2.768H90.1283C90.1283 2.48 90.1283 2.16 90.0323 1.936C90.0003 1.808 89.9363 1.744 89.9043 1.744C89.8083 1.744 89.8083 2.064 89.6803 2.224C89.5843 2.352 89.4883 2.416 89.3602 2.416L89.0083 2.384H88.8802C88.6243 2.384 88.4003 2.32 88.1123 2.288L87.8243 2.256C87.6003 2.256 87.4083 2.288 87.2483 2.384C87.2803 3.248 87.3123 4.016 87.3123 4.88V6.64C87.3123 8.016 87.2163 9.424 87.1843 10.832L86.9603 16.144C86.9283 17.072 86.8963 17.968 86.8963 18.96C86.8963 20.112 86.9283 21.264 86.9603 22.416C86.9923 22.384 87.0563 22.384 87.1203 22.384L87.3763 22.416C87.4083 22.416 87.4723 22.384 87.5683 22.352C87.8243 22.128 88.0163 21.872 88.3043 21.872L88.8483 22.32C88.9443 22.352 89.0083 22.384 89.0403 22.384C89.1363 22.384 89.2643 22.32 89.3602 22.288C89.4563 22.288 89.7123 22.096 90.0643 22L90.3203 21.936L90.6403 21.872ZM113.137 18.768C112.305 18.544 111.505 18.384 110.737 18.288C109.713 18.128 109.361 18.128 108.369 18.032C107.761 18 107.089 17.968 106.481 17.968C106.481 16.816 106.545 15.728 106.641 14.608L106.673 14.032C107.217 14 107.793 13.968 108.305 13.872L112.913 13.52L112.881 12.88C112.785 12.624 112.657 12.368 112.657 12.08C112.657 11.792 112.785 11.728 112.817 11.504V11.344C112.817 11.216 112.817 11.056 112.785 10.928C112.785 10.832 112.593 10.192 112.593 9.808C112.593 9.648 112.625 9.552 112.689 9.552C112.305 9.584 111.889 9.616 111.409 9.712L109.457 9.84C108.785 9.84 108.113 9.808 107.377 9.904L106.929 9.936V6.672C107.217 6.672 107.505 6.704 107.793 6.736C108.977 6.736 109.969 6.864 110.961 6.96C111.697 6.992 112.337 6.96 113.073 7.056L114.385 7.12C114.321 6.832 113.809 6.896 113.425 6.8C113.521 6.64 113.521 6.416 113.745 6.384L114.225 6.416C114.321 6.416 114.385 6.416 114.417 6.384C114.481 6.352 114.513 6.32 114.513 6.288C114.513 6.192 114.385 6.128 114.353 6.032C114.321 5.968 114.321 5.872 114.321 5.776C114.321 5.616 114.353 5.456 114.385 5.232C114.481 4.944 114.513 4.656 114.609 4.304C114.673 4.048 114.705 3.792 114.705 3.536V3.376C113.969 3.216 113.297 3.12 112.561 2.992C111.889 2.896 111.153 2.864 110.481 2.832C109.617 2.8 108.785 2.768 107.921 2.768H106.097C106.097 2.48 106.097 2.16 106.001 1.936C105.969 1.808 105.905 1.744 105.873 1.744C105.777 1.744 105.777 2.064 105.649 2.224C105.553 2.352 105.457 2.416 105.329 2.416L104.977 2.384H104.849C104.593 2.384 104.369 2.32 104.081 2.288L103.793 2.256C103.569 2.256 103.377 2.288 103.217 2.384C103.249 3.248 103.281 4.016 103.281 4.88V6.64C103.281 8.016 103.185 9.424 103.153 10.832L102.929 16.144C102.897 17.072 102.865 17.968 102.865 18.96C102.865 20.112 102.897 21.264 102.929 22.416C102.961 22.384 103.025 22.384 103.089 22.384L103.345 22.416C103.377 22.416 103.441 22.384 103.537 22.352C103.793 22.128 103.985 21.872 104.273 21.872L104.817 22.32C104.913 22.352 104.977 22.384 105.009 22.384C105.105 22.384 105.233 22.32 105.329 22.288C105.425 22.288 105.681 22.096 106.033 22L106.289 21.936L106.609 21.872H106.897C108.177 21.872 108.753 22.064 110.961 22.448C111.729 22.576 112.561 22.64 113.361 22.864C113.905 23.024 114.385 23.024 114.897 23.152C114.929 22.864 114.257 22.8 113.777 22.64C113.937 22.512 114.001 22.352 114.225 22.256C114.449 22.256 114.641 22.416 114.865 22.416C114.929 22.416 114.961 22.416 114.993 22.384C115.089 22.352 115.121 22.32 115.121 22.288C115.121 22.192 115.025 22.128 114.929 22L114.897 21.84C114.897 21.616 114.993 21.424 115.025 21.264C115.121 20.912 115.249 20.656 115.377 20.304C115.473 20.048 115.505 19.792 115.505 19.504V19.376C114.705 19.152 113.937 18.992 113.137 18.768ZM112.689 9.552C112.721 9.552 112.721 9.552 112.721 9.552H112.689ZM133.596 7.632L133.564 7.152C133.5 6.64 133.404 6.32 133.212 5.936C133.084 5.488 132.892 5.04 132.604 4.656C132.348 4.272 131.996 3.888 131.676 3.664C131.388 3.408 131.068 3.184 130.684 3.024C130.396 2.8 130.044 2.64 129.692 2.544C129.02 2.224 128.316 2.192 127.74 2.096C127.068 2.032 126.492 2.032 125.884 2.032C125.276 2.064 124.668 2.064 124.156 2.16C123.356 2.224 122.652 2.352 122.012 2.544C121.116 2.704 119.708 2.992 119.644 3.12L118.396 3.184L118.46 6.32C118.492 6.704 118.524 6.992 118.524 7.216V8.176C118.524 9.36 118.492 10.512 118.428 11.792V19.76C118.428 20.688 118.396 21.52 118.428 22.48C118.428 22.8 118.46 23.184 118.46 23.6C118.716 23.44 119.004 23.632 119.196 23.44C119.548 23.216 119.804 22.928 120.188 23.024C120.412 23.024 120.54 23.344 120.7 23.472C120.956 23.568 121.148 23.472 121.372 23.44C121.468 23.44 122.268 22.736 122.748 23.472C122.524 22.448 122.428 21.488 122.364 20.368C122.332 19.952 122.364 19.632 122.3 19.376V18.928C122.236 18.608 122.268 18.32 122.268 17.904C122.268 17.168 122.3 16.368 122.332 15.632H122.396C123.1 15.504 123.868 15.408 124.668 15.216C125.756 14.928 126.78 14.736 127.868 14.288C128.444 14.096 129.02 13.936 129.564 13.584C130.108 13.36 130.62 13.072 131.26 12.624C131.484 12.368 131.708 12.176 132.028 11.888C132.38 11.568 132.604 11.248 132.86 10.832C133.052 10.512 133.244 10.096 133.372 9.616C133.564 9.168 133.596 8.72 133.628 8.304V7.92L133.596 7.632ZM129.5 8.336L129.436 8.592L129.308 8.784C129.116 9.072 128.828 9.328 128.38 9.616C128.124 9.84 127.772 10.064 127.26 10.224C126.62 10.448 126.076 10.736 125.596 10.832C124.828 11.056 124.252 11.216 123.708 11.28L122.588 11.472V9.52C122.588 8.528 122.588 7.536 122.556 6.576V6.544C123.1 6.448 123.644 6.32 124.156 6.288C124.476 6.192 124.828 6.128 125.212 6.096H126.652C127.132 6.128 127.484 6.192 127.772 6.288C127.996 6.352 128.252 6.416 128.668 6.576L129.404 7.376L129.5 7.856L129.532 8.176L129.5 8.336ZM153.154 3.76C153.186 3.76 153.026 3.984 152.898 3.984C152.674 3.984 152.642 3.664 152.642 3.248V1.904C152.642 1.776 152.61 1.712 152.578 1.712C152.322 1.712 150.018 2.096 149.954 2.096C149.73 2.096 149.73 2.128 149.634 2.16V2.672C149.154 3.536 148.77 4.304 148.29 5.104C147.938 5.776 147.554 6.416 147.074 7.024C146.85 7.376 146.626 7.6 146.37 7.888C146.274 8.048 146.146 8.208 146.05 8.304L145.858 8.496L145.794 8.592L145.698 8.624C145.698 8.592 145.666 8.624 145.666 8.528L145.506 8.304C145.282 8.144 145.218 7.984 144.994 7.76C143.938 6.576 142.85 5.488 141.858 4.24L140.962 3.12L140.61 2.672C140.578 2.128 140.514 1.552 140.514 0.943998C140.226 1.136 140.386 1.872 140.386 2.352L140.066 1.936C140.066 2.224 140.258 2.48 140.354 2.64V3.216C140.194 3.056 139.97 3.024 139.874 2.64C139.842 2.48 139.81 2.352 139.81 2.128V1.712C139.81 1.424 139.778 1.232 139.746 1.136C139.714 1.008 139.682 0.943998 139.65 0.943998C139.554 0.943998 139.522 1.232 139.394 1.392C139.298 1.52 139.202 1.584 139.042 1.584L138.658 1.552C138.402 1.552 138.114 1.488 137.762 1.392L137.282 1.36C137.122 1.36 136.962 1.392 136.834 1.456C136.866 4.528 137.026 7.472 137.282 10.384C137.442 12.176 137.602 14 137.73 15.792C137.89 17.84 137.954 19.856 138.05 21.904C138.082 21.872 138.146 21.872 138.21 21.872L138.466 21.904C138.498 21.904 138.562 21.872 138.658 21.84C138.914 21.68 139.17 21.392 139.426 21.392C139.49 21.392 139.522 21.392 139.554 21.424C139.714 21.456 139.842 21.744 140.002 21.84C140.098 21.872 140.162 21.904 140.226 21.904C140.29 21.904 140.418 21.872 140.578 21.84C140.61 21.808 140.93 21.616 141.282 21.52C141.346 21.488 141.442 21.488 141.538 21.488C141.762 21.488 141.666 21.872 141.922 21.872L141.41 13.712C141.314 12.208 141.25 10.8 141.122 9.296L141.57 9.84C141.794 10.128 142.05 10.384 142.306 10.64L143.33 11.728L144.386 12.944L145.442 14.096L148.226 11.632L148.61 11.184L148.674 11.088L149.09 10.608C149.314 10.352 149.442 10.128 149.666 9.872L149.954 17.296C150.05 19.472 150.114 21.712 150.146 23.888L150.786 23.824C151.042 23.6 151.298 23.312 151.554 23.312L151.65 23.344C151.874 23.376 151.906 23.696 152.13 23.824C152.226 23.856 152.29 23.888 152.322 23.888C152.386 23.888 152.514 23.92 152.674 23.824C152.834 23.728 153.026 23.568 153.378 23.472C153.506 23.44 153.602 23.408 153.666 23.408C153.89 23.408 153.858 23.76 154.018 23.856C154.018 22.448 153.41 3.856 153.154 3.76ZM140.674 3.824C140.674 3.536 140.674 3.376 140.642 3.088C140.834 3.312 140.93 3.504 141.218 3.888C140.994 3.856 140.898 3.92 140.674 3.824ZM171.098 17.296C170.874 16.976 170.65 16.656 170.458 16.304L170.426 16.208C170.426 16.08 170.682 15.888 170.682 15.728C170.714 15.696 170.714 15.6 170.682 15.472C170.65 15.312 170.65 15.216 170.618 15.152C170.618 15.12 170.394 14.8 170.266 14.48C170.202 14.416 170.17 14.32 170.138 14.192C170.106 13.968 170.33 14.128 170.458 13.808L169.37 14L168.986 13.04C168.762 12.528 168.57 11.952 168.41 11.344L167.738 9.136C167.258 7.696 166.938 6.256 166.586 4.752C166.362 3.728 166.042 2.928 165.818 1.936C165.658 2.416 165.882 3.248 166.106 4.112C165.882 4.016 165.658 4.016 165.498 3.664L165.114 2.256C165.082 2.128 165.018 2.064 164.954 2.064C164.858 2.064 164.89 2.416 164.794 2.544C164.666 2.896 164.314 2.8 164.058 2.896L163.13 2.928C163.13 2.576 163.13 2.384 163.098 2.128C163.066 2 163.002 1.936 162.97 1.936C162.874 1.936 162.842 2.32 162.682 2.448C162.586 2.544 162.49 2.608 162.33 2.608L161.914 2.576C161.626 2.576 161.338 2.512 160.986 2.416C160.762 2.384 160.666 2.352 160.506 2.352C160.346 2.352 160.186 2.384 160.026 2.448C159.994 3.952 159.866 5.296 159.642 6.8C159.418 8.112 159.162 9.424 158.906 10.8L158.842 11.184C158.49 13.008 158.074 14.832 157.722 16.752C157.498 17.872 157.37 18.96 157.21 20.08C157.05 21.2 156.922 22.288 156.89 23.536C156.954 23.408 157.978 23.056 158.33 23.056L158.49 23.088C158.65 23.184 158.682 23.408 158.906 23.568C158.97 23.6 159.066 23.632 159.162 23.632C159.322 23.632 159.418 23.632 159.482 23.6C159.578 23.6 159.898 23.408 160.25 23.312L160.474 23.28C160.698 23.28 160.634 23.536 160.826 23.696C160.922 22.64 160.986 21.584 161.114 20.464L161.21 19.696L167.194 18.448L167.93 19.568C168.538 20.56 169.242 21.456 170.138 22.224C170.202 22.128 170.202 22.096 170.298 22C170.458 21.904 170.522 21.808 170.554 21.68C170.554 21.52 170.586 21.36 170.618 21.136C170.65 20.976 170.714 20.848 170.842 20.72C170.874 20.688 170.906 20.688 171.002 20.688L171.354 20.72C171.706 20.72 171.77 20.432 171.866 20.336C171.866 20.24 171.898 20.144 171.962 20.048C171.994 19.92 172.122 19.728 172.218 19.568C172.346 19.408 172.378 19.344 172.506 19.312C172.538 19.28 172.57 19.28 172.666 19.28C172.698 19.28 172.794 19.312 172.89 19.376C172.282 18.768 171.674 18.096 171.098 17.296ZM162.01 15.44L162.426 13.52C162.682 12.496 162.682 11.184 162.874 10.192L163.418 7.312C163.674 8.304 163.898 10.608 164.25 11.6C164.41 12.208 164.634 12.784 164.858 13.424L165.466 14.832C165.114 14.896 164.762 14.96 164.41 15.056C163.578 15.216 162.81 15.312 162.01 15.44ZM190.211 3.728C190.083 3.504 189.891 3.504 189.795 3.12V1.456C189.731 1.296 189.699 1.232 189.667 1.232C189.571 1.232 189.507 1.552 189.379 1.712C189.283 1.84 189.187 1.904 189.059 1.904L188.643 1.84C188.227 1.84 187.715 1.616 187.235 1.616C187.075 1.616 186.915 1.648 186.755 1.712C186.659 4.432 186.435 7.088 186.179 9.776C185.699 9.776 185.251 9.808 182.851 9.744L179.427 9.648V6.096C179.427 5.232 179.427 4.464 179.459 3.664C179.491 3.376 179.491 3.12 179.491 2.832V0.559999C179.171 0.976 179.267 1.968 179.171 2.896C179.043 2.736 178.819 2.672 178.723 2.256V1.104L178.755 0.879999L178.723 0.719999C178.691 0.559999 178.659 0.495998 178.627 0.495998C178.531 0.495998 178.467 0.815998 178.371 0.976C178.275 1.072 178.179 1.136 178.051 1.136L176.227 0.848C176.067 0.848 175.907 0.879999 175.747 0.943998C175.619 3.984 175.459 6.96 175.459 9.936C175.459 11.824 175.459 13.648 175.491 15.472C175.523 17.648 175.523 19.76 175.619 21.904C175.715 21.872 175.779 21.84 175.811 21.84L176.099 21.872C176.163 21.872 176.195 21.872 176.227 21.84C176.483 21.616 176.803 21.36 177.059 21.36C177.315 21.456 177.411 21.712 177.571 21.808C177.667 21.84 177.731 21.872 177.795 21.872C177.923 21.872 178.019 21.84 178.147 21.808C178.243 21.776 178.755 21.456 179.139 21.456C179.363 21.456 179.331 21.808 179.523 21.84L179.363 18.512C179.331 17.712 179.331 16.912 179.331 16.112V12.976H185.923L185.667 16.592C185.507 18.8 185.411 21.008 185.411 23.28C185.443 23.248 185.539 23.216 185.635 23.216L185.923 23.248C185.955 23.248 185.987 23.248 186.019 23.216C186.307 22.992 186.563 22.704 186.851 22.704L186.947 22.736C187.107 22.832 187.171 23.088 187.395 23.216C187.491 23.248 187.555 23.28 187.587 23.28C187.651 23.28 187.779 23.248 187.939 23.216C188.035 23.216 188.323 22.992 188.675 22.864C188.771 22.864 188.803 22.832 188.899 22.832C189.187 22.832 189.123 23.184 189.315 23.312V19.888C189.315 18.224 189.475 16.592 189.635 14.928C189.859 13.136 190.051 11.44 190.179 9.616C190.307 7.952 190.371 6.288 190.499 4.528C190.499 4.432 190.531 4.112 190.531 3.76C190.531 3.088 190.499 2.736 190.403 2.736C190.307 2.736 190.243 3.056 190.211 3.728ZM210.832 2.736C210.736 2.736 210.672 3.056 210.64 3.728C210.512 3.504 210.319 3.504 210.224 3.12V1.456C210.16 1.296 210.128 1.232 210.096 1.232C210 1.232 209.936 1.552 209.808 1.712C209.712 1.84 209.616 1.904 209.488 1.904L209.072 1.84C208.656 1.84 208.144 1.616 207.664 1.616C207.504 1.616 207.344 1.648 207.184 1.712L206.992 4.4C205.264 6.48 201.135 10.768 198.832 13.456L198.896 6.096C198.896 5.232 198.896 4.464 198.928 3.664C198.96 3.376 198.96 3.12 198.96 2.832V0.559999C198.64 0.976 198.736 1.968 198.64 2.896C198.512 2.736 198.288 2.672 198.192 2.256V1.104L198.224 0.879999L198.192 0.719999C198.16 0.559999 198.128 0.495998 198.096 0.495998C198 0.495998 197.936 0.815998 197.84 0.976C197.744 1.072 197.648 1.136 197.52 1.136L195.696 0.848C195.536 0.848 195.376 0.879999 195.216 0.943998C195.088 3.984 194.928 6.96 194.928 9.936C194.928 11.824 194.928 13.648 194.96 15.472C194.992 17.648 194.992 19.76 195.088 21.904C195.184 21.872 195.248 21.84 195.28 21.84L195.568 21.872C195.632 21.872 195.664 21.872 195.696 21.84C195.952 21.616 196.272 21.36 196.528 21.36C196.784 21.456 196.88 21.712 197.04 21.808C197.136 21.84 197.2 21.872 197.264 21.872C197.391 21.872 197.488 21.84 197.616 21.808C197.712 21.776 198.224 21.456 198.608 21.456C198.832 21.456 198.8 21.808 198.992 21.84L198.896 19.664C199.568 18.64 202.352 15.696 206.544 10.416L206.096 16.592C205.936 18.8 205.84 21.008 205.84 23.28C205.872 23.248 205.968 23.216 206.064 23.216L206.352 23.248C206.384 23.248 206.416 23.248 206.448 23.216C206.736 22.992 206.992 22.704 207.28 22.704L207.376 22.736C207.536 22.832 207.6 23.088 207.824 23.216C207.92 23.248 207.984 23.28 208.016 23.28C208.08 23.28 208.208 23.248 208.368 23.216C208.464 23.216 208.752 22.992 209.104 22.864C209.2 22.864 209.232 22.832 209.328 22.832C209.616 22.832 209.552 23.184 209.744 23.312V19.888C209.744 18.224 209.904 16.592 210.064 14.928C210.288 13.136 210.48 11.44 210.608 9.616C210.736 7.952 210.8 6.288 210.928 4.528C210.928 4.432 210.96 4.112 210.96 3.76C210.96 3.088 210.928 2.736 210.832 2.736ZM231.238 2.736C231.142 2.736 231.078 3.056 231.046 3.728C230.918 3.504 230.726 3.504 230.63 3.12V1.456C230.566 1.296 230.534 1.232 230.502 1.232C230.406 1.232 230.342 1.552 230.214 1.712C230.118 1.84 230.022 1.904 229.894 1.904L229.478 1.84C229.062 1.84 228.55 1.616 228.07 1.616C227.91 1.616 227.75 1.648 227.59 1.712L227.398 4.4C225.67 6.48 221.542 10.768 219.238 13.456L219.302 6.096C219.302 5.232 219.302 4.464 219.334 3.664C219.366 3.376 219.366 3.12 219.366 2.832V0.559999C219.046 0.976 219.142 1.968 219.046 2.896C218.918 2.736 218.694 2.672 218.598 2.256V1.104L218.63 0.879999L218.598 0.719999C218.566 0.559999 218.534 0.495998 218.502 0.495998C218.406 0.495998 218.342 0.815998 218.246 0.976C218.15 1.072 218.054 1.136 217.926 1.136L216.102 0.848C215.942 0.848 215.782 0.879999 215.622 0.943998C215.494 3.984 215.334 6.96 215.334 9.936C215.334 11.824 215.334 13.648 215.366 15.472C215.398 17.648 215.398 19.76 215.494 21.904C215.59 21.872 215.654 21.84 215.686 21.84L215.974 21.872C216.038 21.872 216.07 21.872 216.102 21.84C216.358 21.616 216.678 21.36 216.934 21.36C217.19 21.456 217.286 21.712 217.446 21.808C217.542 21.84 217.606 21.872 217.67 21.872C217.798 21.872 217.894 21.84 218.022 21.808C218.118 21.776 218.63 21.456 219.014 21.456C219.238 21.456 219.206 21.808 219.398 21.84L219.302 19.664C219.974 18.64 222.758 15.696 226.95 10.416L226.502 16.592C226.342 18.8 226.246 21.008 226.246 23.28C226.278 23.248 226.374 23.216 226.47 23.216L226.758 23.248C226.79 23.248 226.822 23.248 226.854 23.216C227.142 22.992 227.398 22.704 227.686 22.704L227.782 22.736C227.942 22.832 228.006 23.088 228.23 23.216C228.326 23.248 228.39 23.28 228.422 23.28C228.486 23.28 228.614 23.248 228.774 23.216C228.87 23.216 229.158 22.992 229.51 22.864C229.606 22.864 229.638 22.832 229.734 22.832C230.022 22.832 229.958 23.184 230.15 23.312V19.888C230.15 18.224 230.31 16.592 230.47 14.928C230.694 13.136 230.886 11.44 231.014 9.616C231.142 7.952 231.206 6.288 231.334 4.528C231.334 4.432 231.366 4.112 231.366 3.76C231.366 3.088 231.334 2.736 231.238 2.736Z" fill="#F4F4F3"/>
</svg>
