<svg width="262" height="27" viewBox="0 0 262 27" fill="none" xmlns="http://www.w3.org/2000/svg">
<path d="M17.489 17.6033C17.489 17.1353 17.273 15.5153 16.265 14.2193C16.013 13.8593 15.617 13.5713 15.185 13.3193C14.609 12.9953 13.889 12.7073 13.025 12.3473C13.781 12.1673 15.113 11.1593 15.617 10.0073C15.797 9.61126 15.977 8.92726 16.049 8.45926C16.121 8.06326 16.193 7.63126 16.193 7.19926C16.193 6.94726 16.121 6.47926 16.085 6.26326C15.977 5.75926 15.797 5.29126 15.509 4.85926C15.329 4.60726 15.149 4.35526 14.897 4.13926C14.681 3.92326 14.429 3.67126 14.177 3.49126C13.925 3.31126 13.673 3.20326 13.421 3.05926C12.917 2.77126 12.377 2.48326 11.801 2.26726C11.261 2.12326 10.721 2.08726 10.253 1.97926C9.28103 1.83526 8.38103 1.72726 7.40903 1.69126H6.86903C6.43703 1.69126 6.04103 1.69126 5.64503 1.72726L3.95303 1.83526C4.56503 2.12326 5.68103 1.94326 6.54503 1.97926C6.29303 2.12326 6.29303 2.30326 5.82503 2.41126H5.21303C5.21303 2.33926 5.17703 2.30326 5.10503 2.30326C5.03303 2.30326 4.99703 2.33926 4.96103 2.41126C4.70903 2.41126 4.45703 2.44726 4.20503 2.48326C4.02503 2.55526 3.95303 2.59126 3.95303 2.62726C3.95303 2.73526 4.31303 2.77126 4.45703 2.87926H4.49303C4.52903 2.91526 4.52903 2.91526 4.52903 2.95126L3.88103 2.80726C3.55703 2.77126 3.19703 2.66326 2.87303 2.55526C2.62103 2.48326 2.36903 2.44726 2.15303 2.44726C1.97303 2.44726 1.86503 2.44726 1.79303 2.48326C1.32503 5.68726 1.03703 8.81926 0.929032 11.8793C0.893032 13.2113 0.893032 14.6153 0.893032 15.9473V17.6033C0.893032 19.9073 0.893032 22.0313 0.929032 24.1913C0.965032 24.1553 1.03703 24.1553 1.07303 24.1553C1.21703 24.1553 1.32503 24.2273 1.43303 24.2273C1.54103 24.2273 1.61303 24.1913 1.68503 24.1193C1.86503 24.0473 1.86503 24.0113 2.00903 23.9033L2.11703 23.9393C2.11703 24.0473 2.18903 24.1553 2.22503 24.2633C2.22503 24.3713 2.58503 24.6593 2.69303 24.9473C2.72903 25.0553 2.76503 25.1273 2.76503 25.1993C2.76503 25.2353 2.72903 25.2713 2.69303 25.3793C2.58503 25.4873 2.40503 25.5233 2.15303 25.5233H9.28103C11.117 25.4153 12.737 24.8393 14.069 23.9753C14.465 23.7233 14.789 23.3273 15.113 23.0393C15.509 22.6793 15.869 22.3913 16.157 21.9953C16.445 21.5993 16.589 21.2033 16.805 20.7713C17.273 19.7993 17.489 18.7193 17.489 17.6033ZM5.82503 5.36326H6.79703C8.48903 5.39926 9.71303 5.68726 10.505 6.26326C10.901 6.51526 11.441 6.83926 11.441 7.27126C11.441 7.66726 11.873 8.42326 11.261 9.53926C11.117 9.86326 10.865 10.1153 10.577 10.3313C9.64103 10.9793 8.02103 11.1953 5.60903 11.0153C5.64503 9.68326 5.68103 6.87526 5.78903 5.61526C5.82503 5.57926 5.82503 5.47126 5.82503 5.36326ZM12.953 17.6753C12.953 18.2873 12.773 18.8633 12.377 19.4393C12.269 19.6193 11.765 20.1233 11.621 20.3033C10.613 21.4193 9.31703 21.8513 7.08503 21.8513H5.35703L5.32103 19.9073V19.5113C5.28503 19.1873 5.24903 18.8633 5.24903 18.5393C5.24903 17.6393 5.35703 16.7033 5.32103 15.8033C5.28503 14.3993 5.42903 13.7873 5.57303 12.0593C5.71703 12.2033 5.78903 12.3473 5.82503 12.4553C5.82503 12.6353 5.60903 12.8153 5.57303 12.9953C5.57303 13.1753 5.64503 13.3553 5.78903 13.4993C5.78903 13.5353 6.11303 13.7873 6.36503 14.1113C6.65303 14.3993 6.18503 14.3273 6.18503 14.7593C6.76103 14.5793 7.40903 14.4353 7.98503 14.1833C7.98503 14.2913 8.05703 14.3993 8.09303 14.5073C9.13703 14.5073 9.85703 14.6873 10.613 14.8313C11.225 14.9393 11.837 15.4433 12.197 15.6953C12.845 16.2353 12.953 16.7753 12.953 17.6753ZM36.1157 4.64326L36.0077 4.35526C35.2877 3.92326 34.5317 3.56326 33.8477 3.23926C33.0197 2.91526 32.2637 2.66326 31.4357 2.41126C30.5717 2.15926 29.6357 1.97926 28.6637 1.97926C28.1237 1.97926 27.6197 2.01526 27.0797 2.15926C26.6117 2.26726 26.0717 2.33926 25.6037 2.59126C25.0637 2.84326 24.6317 3.13126 24.1637 3.45526C23.7677 3.74326 23.3717 4.10326 23.0117 4.49926C22.7237 4.93126 22.3997 5.32726 22.1477 5.72326L21.4997 7.01926C21.1037 7.84726 20.9237 8.63926 20.7437 9.46726C20.5637 10.2953 20.4557 11.0153 20.3477 11.6993L20.3117 11.9153C20.2397 12.7073 20.2037 13.4633 20.2037 14.2193V14.9753C20.2037 15.9833 20.3117 17.0273 20.5637 18.1433C20.7077 18.6833 20.8877 19.2233 21.0677 19.7993C21.2477 20.3393 21.4997 20.8433 21.8957 21.3833C22.1837 21.9233 22.6157 22.4273 23.0477 22.8953C23.5877 23.3273 24.0917 23.7593 24.6677 24.0473C25.2797 24.4433 26.0357 24.6953 26.7197 24.8753C27.4757 25.0193 28.1237 25.0553 28.8437 25.0553C29.5277 25.0553 30.2117 25.0193 30.7877 24.9113C31.4717 24.7673 32.0837 24.6953 32.6237 24.4433C33.7037 24.0833 34.8917 23.4713 37.0157 22.1033C36.8717 22.0673 36.8357 21.9593 36.7277 21.8513C36.6197 21.7073 36.6197 21.5993 36.4397 21.5633C36.1877 21.5633 35.8997 21.5633 35.6477 21.5273C35.3237 21.4553 35.1797 21.3473 35.1437 21.2033C35.1437 21.0953 35.2157 20.9873 35.3237 20.8073C35.4677 20.6273 35.5397 20.4113 35.6477 20.3033C35.6477 19.9793 35.4317 19.9073 35.2517 19.7993C35.2157 19.6913 35.1077 19.7273 34.8557 19.6193C34.7117 19.5833 34.4237 19.5113 34.2797 19.4033C34.0997 19.2593 34.1357 19.1873 34.1357 19.0793C34.1357 18.8993 34.4957 18.8273 34.5317 18.3953C32.8037 19.5833 32.2277 20.0153 31.1477 20.3393C30.4637 20.5553 29.8157 20.6273 29.2397 20.6633L28.8077 20.6993C28.3397 20.6993 27.9077 20.6273 27.5117 20.5193C26.9717 20.3753 26.6117 20.1233 26.2157 19.7993C25.8197 19.4753 25.6037 19.0793 25.3157 18.5393C25.0637 17.9633 24.9197 17.3513 24.8117 16.6673C24.7397 15.9473 24.7037 15.2273 24.7037 14.4713C24.7037 13.7153 24.7757 12.9953 24.8837 12.1673C24.9917 11.4113 25.0997 10.6913 25.2797 9.97126C25.5317 9.28726 25.7117 8.74726 25.9637 8.20726C26.0717 7.95526 26.2157 7.73926 26.4317 7.52326C26.5397 7.34326 26.7197 7.16326 26.8997 7.01926C27.0437 6.87526 27.1877 6.76726 27.4397 6.65926C27.6197 6.55126 27.7997 6.47926 28.0517 6.44326C28.1597 6.40726 28.3037 6.40726 28.5557 6.40726C28.9517 6.40726 29.3477 6.44326 29.7077 6.55126C30.1397 6.65926 30.5717 6.69526 30.9677 6.83926C31.3997 7.01926 31.7597 7.12726 32.2277 7.30726C33.0917 7.63126 33.9197 8.06326 34.7117 8.56726C34.9997 8.13526 33.7037 7.81126 33.1637 7.41526L32.1557 6.98326C31.8317 6.98326 31.3637 6.58726 31.0397 6.47926C31.1837 6.44326 31.2557 6.37126 31.5077 6.33526C31.5437 6.33526 31.5797 6.29926 31.6877 6.29926C31.8317 6.29926 32.0117 6.33526 32.2277 6.40726C32.6237 6.51526 33.0917 6.73126 33.5597 7.01926C34.0277 7.27126 34.4957 7.55926 34.8917 7.66726C35.0717 7.73926 35.1797 7.77526 35.2517 7.77526C35.2517 7.70326 35.2517 7.66726 35.2157 7.63126L34.6397 7.09126C34.5317 6.98326 34.4957 6.83926 34.4957 6.69526C34.4957 6.58726 34.4957 6.51526 34.5317 6.47926L34.8557 6.19126C34.9997 5.90326 35.3597 5.65126 35.6477 5.39926C35.8997 5.21926 36.1157 4.96726 36.1157 4.64326ZM52.5272 21.0953C51.5912 20.8433 50.6912 20.6633 49.8272 20.5553C48.6752 20.3753 48.2792 20.3753 47.1632 20.2673C46.4792 20.2313 45.7232 20.1953 45.0392 20.1953C45.0392 18.8993 45.1112 17.6753 45.2192 16.4153L45.2552 15.7673C45.8672 15.7313 46.5152 15.6953 47.0912 15.5873L52.2752 15.1913L52.2392 14.4713C52.1312 14.1833 51.9872 13.8953 51.9872 13.5713C51.9872 13.2473 52.1312 13.1753 52.1672 12.9233V12.7433C52.1672 12.5993 52.1672 12.4193 52.1312 12.2753C52.1312 12.1673 51.9152 11.4473 51.9152 11.0153C51.9152 10.8353 51.9512 10.7273 52.0232 10.7273C51.5912 10.7633 51.1232 10.7993 50.5832 10.9073L48.3872 11.0513C47.6312 11.0513 46.8752 11.0153 46.0472 11.1233L45.5432 11.1593V7.48726C45.8672 7.48726 46.1912 7.52326 46.5152 7.55926C47.8472 7.55926 48.9632 7.70326 50.0792 7.81126C50.9072 7.84726 51.6272 7.81126 52.4552 7.91926L53.9312 7.99126C53.8592 7.66726 53.2832 7.73926 52.8512 7.63126C52.9592 7.45126 52.9592 7.19926 53.2112 7.16326L53.7512 7.19926C53.8592 7.19926 53.9312 7.19926 53.9672 7.16326C54.0392 7.12726 54.0752 7.09126 54.0752 7.05526C54.0752 6.94726 53.9312 6.87526 53.8952 6.76726C53.8592 6.69526 53.8592 6.58726 53.8592 6.47926C53.8592 6.29926 53.8952 6.11926 53.9312 5.86726C54.0392 5.54326 54.0752 5.21926 54.1832 4.82326C54.2552 4.53526 54.2912 4.24726 54.2912 3.95926V3.77926C53.4632 3.59926 52.7072 3.49126 51.8792 3.34726C51.1232 3.23926 50.2952 3.20326 49.5392 3.16726C48.5672 3.13126 47.6312 3.09526 46.6592 3.09526H44.6072C44.6072 2.77126 44.6072 2.41126 44.4992 2.15926C44.4632 2.01526 44.3912 1.94326 44.3552 1.94326C44.2472 1.94326 44.2472 2.30326 44.1032 2.48326C43.9952 2.62726 43.8872 2.69926 43.7432 2.69926L43.3472 2.66326H43.2032C42.9152 2.66326 42.6632 2.59126 42.3392 2.55526L42.0152 2.51926C41.7632 2.51926 41.5472 2.55526 41.3672 2.66326C41.4032 3.63526 41.4392 4.49926 41.4392 5.47126V7.45126C41.4392 8.99926 41.3312 10.5833 41.2952 12.1673L41.0432 18.1433C41.0072 19.1873 40.9712 20.1953 40.9712 21.3113C40.9712 22.6073 41.0072 23.9033 41.0432 25.1993C41.0792 25.1633 41.1512 25.1633 41.2232 25.1633L41.5112 25.1993C41.5472 25.1993 41.6192 25.1633 41.7272 25.1273C42.0152 24.8753 42.2312 24.5873 42.5552 24.5873L43.1672 25.0913C43.2752 25.1273 43.3472 25.1633 43.3832 25.1633C43.4912 25.1633 43.6352 25.0913 43.7432 25.0553C43.8512 25.0553 44.1392 24.8393 44.5352 24.7313L44.8232 24.6593L45.1832 24.5873H45.5072C46.9472 24.5873 47.5952 24.8033 50.0792 25.2353C50.9432 25.3793 51.8792 25.4513 52.7792 25.7033C53.3912 25.8833 53.9312 25.8833 54.5072 26.0273C54.5432 25.7033 53.7872 25.6313 53.2472 25.4513C53.4272 25.3073 53.4992 25.1273 53.7512 25.0193C54.0032 25.0193 54.2192 25.1993 54.4712 25.1993C54.5432 25.1993 54.5792 25.1993 54.6152 25.1633C54.7232 25.1273 54.7592 25.0913 54.7592 25.0553C54.7592 24.9473 54.6512 24.8753 54.5432 24.7313L54.5072 24.5513C54.5072 24.2993 54.6152 24.0833 54.6512 23.9033C54.7592 23.5073 54.9032 23.2193 55.0472 22.8233C55.1552 22.5353 55.1912 22.2473 55.1912 21.9233V21.7793C54.2912 21.5273 53.4272 21.3473 52.5272 21.0953ZM52.0232 10.7273C52.0592 10.7273 52.0592 10.7273 52.0592 10.7273H52.0232ZM71.2958 4.24726L71.1158 4.35526C70.2518 5.03926 69.4958 5.93926 68.8838 6.76726C68.3078 7.73926 67.8038 8.63926 67.4078 9.61126C67.0478 10.5833 66.7598 11.5913 66.5438 12.6353C66.4358 13.4633 66.3638 14.2193 66.3638 15.0473L66.3998 15.7673C66.4358 16.8833 66.6158 17.9273 66.9398 18.9713C67.1198 19.5473 67.2998 20.0153 67.5878 20.5553C67.8758 21.0953 68.1998 21.6713 68.5958 22.1033C68.9918 22.5713 69.3878 23.0393 69.9278 23.4713C70.5038 23.8673 71.0798 24.1193 71.6198 24.3713C72.3038 24.6233 72.8438 24.8393 73.4558 24.8753H73.6718L73.7798 24.9113C74.1398 24.9833 74.4638 25.0193 74.7878 25.0193C75.0038 25.0193 75.1478 25.0193 75.2558 24.9833C76.0118 24.9473 76.6958 24.8393 77.3438 24.6593L77.8478 24.5513L78.2438 24.4073C78.6758 24.2993 78.9998 24.1193 79.3958 23.9393C80.0798 23.5793 80.7278 23.1833 81.2678 22.7153C81.8078 22.2473 82.3118 21.7073 82.7078 21.1313C83.6078 19.9793 84.1478 18.8633 84.6158 17.5313C85.0478 16.3433 85.2638 15.0113 85.3718 13.7153L85.4078 12.7793C85.4078 12.3473 85.3718 11.8793 85.3358 11.4473C85.2638 10.6193 85.1198 9.86326 84.9038 9.10726L84.7958 8.78326C84.6158 8.17126 84.2558 7.48726 83.9678 6.87526C83.5718 6.11926 83.0678 5.39926 82.5278 4.78726C82.2038 4.46326 81.9158 4.24726 81.5198 3.95926L81.0158 3.49126L80.4398 3.20326C80.0438 2.95126 79.5758 2.66326 79.0358 2.55526C78.6398 2.44726 78.1718 2.33926 77.7038 2.33926H76.1918L75.0038 2.62726C74.3198 2.80726 73.7798 2.87926 73.3478 2.98726C73.4198 3.02326 73.4558 3.09526 73.4558 3.13126L73.4918 3.49126C73.4918 3.63526 73.5278 3.70726 73.5998 3.74326L74.3918 4.13926C74.5718 4.21126 74.7158 4.31926 74.7518 4.42726V4.67926C74.7518 4.78726 74.5358 4.85926 74.3558 4.96726C74.1038 5.14726 73.9598 5.21926 73.8518 5.32726C73.8158 5.36326 73.7798 5.47126 73.7798 5.57926V5.72326C73.8878 5.83126 73.9238 5.90326 73.9598 6.01126C73.9598 6.08326 74.1038 6.19126 74.3918 6.29926C74.6438 6.47926 74.7878 6.55126 74.9318 6.80326C74.9678 6.83926 75.0398 6.91126 75.0758 7.01926C75.0758 7.16326 75.0758 7.23526 75.0398 7.27126C75.0398 7.37926 74.6438 7.55926 75.2558 7.52326L76.1198 7.27126C76.4438 7.19926 76.6958 7.16326 76.9118 7.16326C77.1638 7.12726 77.2718 7.09126 77.4158 7.09126L77.7758 7.12726L78.2438 7.34326L78.4598 7.52326C78.5678 7.55926 78.6398 7.63126 78.7478 7.73926L79.2158 8.20726C79.6118 8.74726 80.0078 9.28726 80.2598 9.97126L80.3318 10.2233C80.5118 10.8713 80.6198 11.5193 80.6558 12.1673V12.7073C80.6558 14.1113 80.4038 15.4793 79.8638 16.7393C79.4678 17.5673 79.0718 18.1073 78.6038 18.6473C78.3518 18.8993 78.0998 19.1153 77.7758 19.2953C77.5238 19.5113 77.2718 19.6553 76.9478 19.7273L76.8398 19.7993C76.5878 19.8353 76.5518 19.8713 76.4438 19.8713C76.2638 19.9793 76.1198 20.0153 75.8678 20.0513C75.4718 20.0873 75.1478 20.0513 74.8238 20.1593C74.4278 20.1233 74.1398 20.0873 73.8518 19.9793C73.5998 19.9433 73.3478 19.8353 73.1318 19.6913C72.8798 19.5833 72.7358 19.4033 72.5558 19.2233C72.3758 19.0433 72.1598 18.8273 71.9798 18.5033C71.7278 18.1793 71.6558 17.7833 71.5118 17.3513C71.4038 17.0993 71.3318 16.8473 71.2958 16.5593C71.1878 16.0913 71.1518 15.6233 71.1518 15.0833C71.1518 14.8313 71.1518 14.5433 71.1878 14.2913C71.2958 13.4633 71.3318 12.6713 71.5838 11.9153C71.9078 10.9433 72.3398 10.0433 72.8798 9.21526C73.4558 8.38726 74.0678 7.70326 74.8238 7.34326C74.3918 7.23526 73.7438 7.88326 73.1318 8.49526C72.9518 8.78326 72.7358 9.03526 72.4838 9.32326C72.2318 9.64726 71.9798 10.0073 71.7998 10.4033C71.7638 10.2233 71.7278 10.0433 71.7278 9.89926V9.75526C71.7278 9.50326 71.7998 9.28726 71.9078 9.07126C72.0878 8.63926 72.4118 8.20726 72.8798 7.81126C73.1318 7.63126 73.3118 7.41526 73.4918 7.23526C73.7438 7.09126 73.8878 6.94726 73.9958 6.76726C74.2478 6.58726 74.2838 6.55126 74.2838 6.44326C74.2838 6.40726 74.2478 6.40726 74.1758 6.40726C73.9238 6.40726 73.4198 6.69526 73.3118 6.73126C73.2038 6.73126 73.1318 6.76726 73.0238 6.76726C72.9158 6.76726 72.8078 6.73126 72.6998 6.62326L72.5198 6.19126C72.3758 6.04726 72.3038 5.83126 72.2678 5.68726L72.0878 5.07526L72.0518 4.78726C72.0158 4.64326 71.9438 4.53526 71.8718 4.49926C71.7638 4.31926 71.5838 4.24726 71.2958 4.24726ZM102.593 24.5873L102.953 7.48726C103.277 7.48726 103.601 7.52326 103.925 7.55926C105.257 7.55926 107.345 7.70326 108.461 7.81126C109.289 7.84726 110.441 7.81126 111.269 7.91926L112.745 7.99126C112.673 7.66726 112.097 7.73926 111.665 7.63126C111.773 7.45126 111.773 7.19926 112.025 7.16326L112.565 7.19926C112.673 7.19926 112.745 7.19926 112.781 7.16326C112.853 7.12726 112.889 7.09126 112.889 7.05526C112.889 6.94726 112.745 6.87526 112.709 6.76726C112.673 6.69526 112.673 6.58726 112.673 6.47926C112.673 6.29926 112.709 6.11926 112.745 5.86726C112.853 5.54326 112.889 5.21926 112.997 4.82326C113.069 4.53526 113.105 4.24726 113.105 3.95926V3.77926C112.277 3.59926 111.521 3.49126 110.693 3.34726C109.937 3.23926 108.677 3.20326 107.921 3.16726C106.949 3.13126 105.041 3.09526 104.069 3.09526H102.017C102.017 2.77126 102.017 2.41126 101.909 2.15926C101.873 2.01526 101.801 1.94326 101.765 1.94326C101.657 1.94326 101.657 2.30326 101.513 2.48326C101.405 2.62726 101.297 2.69926 101.153 2.69926L100.757 2.66326H100.613C100.325 2.66326 100.073 2.59126 99.7493 2.55526L99.4253 2.51926C99.1733 2.51926 98.9573 2.55526 98.7773 2.66326C98.8133 3.63526 98.8493 4.49926 98.8493 5.47126V7.45126C98.8493 8.99926 98.7413 10.5833 98.7053 12.1673L98.4533 18.1433C98.4173 19.1873 98.3813 20.1953 98.3813 21.3113C98.3813 22.6073 98.4173 23.9033 98.4533 25.1993C98.4893 25.1633 98.5613 25.1633 98.6333 25.1633L98.9213 25.1993C98.9573 25.1993 99.0293 25.1633 99.1373 25.1273C99.4253 24.8753 99.6413 24.5873 99.9653 24.5873L100.577 25.0913C100.685 25.1273 100.757 25.1633 100.793 25.1633C100.901 25.1633 101.045 25.0913 101.153 25.0553C101.261 25.0553 101.549 24.8393 101.945 24.7313L102.233 24.6593L102.593 24.5873ZM172.921 4.21126C172.957 4.21126 172.777 4.46326 172.633 4.46326C172.381 4.46326 172.345 4.10326 172.345 3.63526V2.12326C172.345 1.97926 172.309 1.90726 172.273 1.90726C171.985 1.90726 169.393 2.33926 169.321 2.33926C169.069 2.33926 169.069 2.37526 168.961 2.41126V2.98726C168.421 3.95926 167.989 4.82326 167.449 5.72326C167.053 6.47926 166.621 7.19926 166.081 7.88326C165.829 8.27926 165.577 8.53126 165.289 8.85526C165.181 9.03526 165.037 9.21526 164.929 9.32326L164.713 9.53926L164.641 9.64726L164.533 9.68326C164.533 9.64726 164.497 9.68326 164.497 9.57526L164.317 9.32326C164.065 9.14326 163.993 8.96326 163.741 8.71126C162.553 7.37926 161.329 6.15526 160.213 4.75126L159.205 3.49126L158.809 2.98726C158.773 2.37526 158.701 1.72726 158.701 1.04326C158.377 1.25926 158.557 2.08726 158.557 2.62726L158.197 2.15926C158.197 2.48326 158.413 2.77126 158.521 2.95126V3.59926C158.341 3.41926 158.089 3.38326 157.981 2.95126C157.945 2.77126 157.909 2.62726 157.909 2.37526V1.90726C157.909 1.58326 157.873 1.36726 157.837 1.25926C157.801 1.11526 157.765 1.04326 157.729 1.04326C157.621 1.04326 157.585 1.36726 157.441 1.54726C157.333 1.69126 157.225 1.76326 157.045 1.76326L156.613 1.72726C156.325 1.72726 156.001 1.65526 155.605 1.54726L155.065 1.51126C154.885 1.51126 154.705 1.54726 154.561 1.61926C154.597 5.07526 154.777 8.38726 155.065 11.6633C155.245 13.6793 155.425 15.7313 155.569 17.7473C155.749 20.0513 155.821 22.3193 155.929 24.6233C155.965 24.5873 156.037 24.5873 156.109 24.5873L156.397 24.6233C156.433 24.6233 156.505 24.5873 156.613 24.5513C156.901 24.3713 157.189 24.0473 157.477 24.0473C157.549 24.0473 157.585 24.0473 157.621 24.0833C157.801 24.1193 157.945 24.4433 158.125 24.5513C158.233 24.5873 158.305 24.6233 158.377 24.6233C158.449 24.6233 158.593 24.5873 158.773 24.5513C158.809 24.5153 159.169 24.2993 159.565 24.1913C159.637 24.1553 159.745 24.1553 159.853 24.1553C160.105 24.1553 159.997 24.5873 160.285 24.5873L159.709 15.4073C159.601 13.7153 159.529 12.1313 159.385 10.4393L159.889 11.0513C160.141 11.3753 160.429 11.6633 160.717 11.9513L161.869 13.1753L163.057 14.5433L164.245 15.8393L167.377 13.0673L167.809 12.5633L167.881 12.4553L168.349 11.9153C168.601 11.6273 168.745 11.3753 168.997 11.0873L169.321 19.4393C169.429 21.8873 169.501 24.4073 169.537 26.8553L170.257 26.7833C170.545 26.5313 170.833 26.2073 171.121 26.2073L171.229 26.2433C171.481 26.2793 171.517 26.6393 171.769 26.7833C171.877 26.8193 171.949 26.8553 171.985 26.8553C172.057 26.8553 172.201 26.8913 172.381 26.7833C172.561 26.6753 172.777 26.4953 173.173 26.3873C173.317 26.3513 173.425 26.3153 173.497 26.3153C173.749 26.3153 173.713 26.7113 173.893 26.8193C173.893 25.2353 173.209 4.31926 172.921 4.21126ZM158.881 4.28326C158.881 3.95926 158.881 3.77926 158.845 3.45526C159.061 3.70726 159.169 3.92326 159.493 4.35526C159.241 4.31926 159.133 4.39126 158.881 4.28326ZM237.914 3.05926C237.806 3.05926 237.734 3.41926 237.698 4.17526C237.554 3.92326 237.338 3.92326 237.23 3.49126V1.61926C237.158 1.43926 237.122 1.36726 237.086 1.36726C236.978 1.36726 236.906 1.72726 236.762 1.90726C236.654 2.05126 236.546 2.12326 236.402 2.12326L235.934 2.05126C235.466 2.05126 234.89 1.79926 234.35 1.79926C234.17 1.79926 233.99 1.83526 233.81 1.90726L233.594 4.93126C231.65 7.27126 227.006 12.0953 224.414 15.1193L224.486 6.83926C224.486 5.86726 224.486 5.00326 224.522 4.10326C224.558 3.77926 224.558 3.49126 224.558 3.16726V0.611262C224.198 1.07926 224.306 2.19526 224.198 3.23926C224.054 3.05926 223.802 2.98726 223.694 2.51926V1.22326L223.73 0.971261L223.694 0.791261C223.658 0.611262 223.622 0.53926 223.586 0.53926C223.478 0.53926 223.406 0.89926 223.298 1.07926C223.19 1.18726 223.082 1.25926 222.938 1.25926L220.886 0.935262C220.706 0.935262 220.526 0.971261 220.346 1.04326C220.202 4.46326 220.022 7.81126 220.022 11.1593C220.022 13.2833 220.022 15.3353 220.058 17.3873C220.094 19.8353 220.094 22.2113 220.202 24.6233C220.31 24.5873 220.382 24.5513 220.418 24.5513L220.742 24.5873C220.814 24.5873 220.85 24.5873 220.886 24.5513C221.174 24.2993 221.534 24.0113 221.822 24.0113C222.11 24.1193 222.218 24.4073 222.398 24.5153C222.506 24.5513 222.578 24.5873 222.65 24.5873C222.794 24.5873 222.902 24.5513 223.046 24.5153C223.154 24.4793 223.73 24.1193 224.162 24.1193C224.414 24.1193 224.378 24.5153 224.594 24.5513L224.486 22.1033C225.242 20.9513 228.374 17.6393 233.09 11.6993L232.586 18.6473C232.406 21.1313 232.298 23.6153 232.298 26.1713C232.334 26.1353 232.442 26.0993 232.55 26.0993L232.874 26.1353C232.91 26.1353 232.946 26.1353 232.982 26.0993C233.306 25.8473 233.594 25.5233 233.918 25.5233L234.026 25.5593C234.206 25.6673 234.278 25.9553 234.53 26.0993C234.638 26.1353 234.71 26.1713 234.746 26.1713C234.818 26.1713 234.962 26.1353 235.142 26.0993C235.25 26.0993 235.574 25.8473 235.97 25.7033C236.078 25.7033 236.114 25.6673 236.222 25.6673C236.546 25.6673 236.474 26.0633 236.69 26.2073V22.3553C236.69 20.4833 236.87 18.6473 237.05 16.7753C237.302 14.7593 237.518 12.8513 237.662 10.7993C237.806 8.92726 237.878 7.05526 238.022 5.07526C238.022 4.96726 238.058 4.60726 238.058 4.21126C238.058 3.45526 238.022 3.05926 237.914 3.05926Z" fill="#1D1B1B"/>
<path d="M127.902 21.0953C126.966 20.8433 126.066 20.6633 125.202 20.5553C124.05 20.3753 123.654 20.3753 122.538 20.2673C121.854 20.2313 121.098 20.1953 120.414 20.1953C120.414 18.8993 120.486 17.6753 120.594 16.4153L120.63 15.7673C121.242 15.7313 121.89 15.6953 122.466 15.5873L127.65 15.1913L127.614 14.4713C127.506 14.1833 127.362 13.8953 127.362 13.5713C127.362 13.2473 127.506 13.1753 127.542 12.9233V12.7433C127.542 12.5993 127.542 12.4193 127.506 12.2753C127.506 12.1673 127.29 11.4473 127.29 11.0153C127.29 10.8353 127.326 10.7273 127.398 10.7273C126.966 10.7633 126.498 10.7993 125.958 10.9073L123.762 11.0513C123.006 11.0513 122.25 11.0153 121.422 11.1233L120.918 11.1593V7.48726C121.242 7.48726 121.566 7.52326 121.89 7.55926C123.222 7.55926 124.338 7.70326 125.454 7.81126C126.282 7.84726 127.002 7.81126 127.83 7.91926L129.306 7.99126C129.234 7.66726 128.658 7.73926 128.226 7.63126C128.334 7.45126 128.334 7.19926 128.586 7.16326L129.126 7.19926C129.234 7.19926 129.306 7.19926 129.342 7.16326C129.414 7.12726 129.45 7.09126 129.45 7.05526C129.45 6.94726 129.306 6.87526 129.27 6.76726C129.234 6.69526 129.234 6.58726 129.234 6.47926C129.234 6.29926 129.27 6.11926 129.306 5.86726C129.414 5.54326 129.45 5.21926 129.558 4.82326C129.63 4.53526 129.666 4.24726 129.666 3.95926V3.77926C128.838 3.59926 128.082 3.49126 127.254 3.34726C126.498 3.23926 125.67 3.20326 124.914 3.16726C123.942 3.13126 123.006 3.09526 122.034 3.09526H119.982C119.982 2.77126 119.982 2.41126 119.874 2.15926C119.838 2.01526 119.766 1.94326 119.73 1.94326C119.622 1.94326 119.622 2.30326 119.478 2.48326C119.37 2.62726 119.262 2.69926 119.118 2.69926L118.722 2.66326H118.578C118.29 2.66326 118.038 2.59126 117.714 2.55526L117.39 2.51926C117.138 2.51926 116.922 2.55526 116.742 2.66326C116.778 3.63526 116.814 4.49926 116.814 5.47126V7.45126C116.814 8.99926 116.706 10.5833 116.67 12.1673L116.418 18.1433C116.382 19.1873 116.346 20.1953 116.346 21.3113C116.346 22.6073 116.382 23.9033 116.418 25.1993C116.454 25.1633 116.526 25.1633 116.598 25.1633L116.886 25.1993C116.922 25.1993 116.994 25.1633 117.102 25.1273C117.39 24.8753 117.606 24.5873 117.93 24.5873L118.542 25.0913C118.65 25.1273 118.722 25.1633 118.758 25.1633C118.866 25.1633 119.01 25.0913 119.118 25.0553C119.226 25.0553 119.514 24.8393 119.91 24.7313L120.198 24.6593L120.558 24.5873H120.882C122.322 24.5873 122.97 24.8033 125.454 25.2353C126.318 25.3793 127.254 25.4513 128.154 25.7033C128.766 25.8833 129.306 25.8833 129.882 26.0273C129.918 25.7033 129.162 25.6313 128.622 25.4513C128.802 25.3073 128.874 25.1273 129.126 25.0193C129.378 25.0193 129.594 25.1993 129.846 25.1993C129.918 25.1993 129.954 25.1993 129.99 25.1633C130.098 25.1273 130.134 25.0913 130.134 25.0553C130.134 24.9473 130.026 24.8753 129.918 24.7313L129.882 24.5513C129.882 24.2993 129.99 24.0833 130.026 23.9033C130.134 23.5073 130.278 23.2193 130.422 22.8233C130.53 22.5353 130.566 22.2473 130.566 21.9233V21.7793C129.666 21.5273 128.802 21.3473 127.902 21.0953ZM127.398 10.7273C127.434 10.7273 127.434 10.7273 127.434 10.7273H127.398ZM193.108 19.4393C192.856 19.0793 192.604 18.7193 192.388 18.3233L192.352 18.2153C192.352 18.0713 192.64 17.8553 192.64 17.6753C192.676 17.6393 192.676 17.5313 192.64 17.3873C192.604 17.2073 192.604 17.0993 192.568 17.0273C192.568 16.9913 192.316 16.6313 192.172 16.2713C192.1 16.1993 192.064 16.0913 192.028 15.9473C191.992 15.6953 192.244 15.8753 192.388 15.5153L191.164 15.7313L190.732 14.6513C190.48 14.0753 190.264 13.4273 190.084 12.7433L189.328 10.2593C188.788 8.63926 188.428 7.01926 188.032 5.32726C187.78 4.17526 187.42 3.27526 187.168 2.15926C186.988 2.69926 187.24 3.63526 187.492 4.60726C187.24 4.49926 186.988 4.49926 186.808 4.10326L186.376 2.51926C186.34 2.37526 186.268 2.30326 186.196 2.30326C186.088 2.30326 186.124 2.69926 186.016 2.84326C185.872 3.23926 185.476 3.13126 185.188 3.23926L184.144 3.27526C184.144 2.87926 184.144 2.66326 184.108 2.37526C184.072 2.23126 184 2.15926 183.964 2.15926C183.856 2.15926 183.82 2.59126 183.64 2.73526C183.532 2.84326 183.424 2.91526 183.244 2.91526L182.776 2.87926C182.452 2.87926 182.128 2.80726 181.732 2.69926C181.48 2.66326 181.372 2.62726 181.192 2.62726C181.012 2.62726 180.832 2.66326 180.652 2.73526C180.616 4.42726 180.472 5.93926 180.22 7.63126C179.968 9.10726 179.68 10.5833 179.392 12.1313L179.32 12.5633C178.924 14.6153 178.456 16.6673 178.06 18.8273C177.808 20.0873 177.664 21.3113 177.484 22.5713C177.304 23.8313 177.16 25.0553 177.124 26.4593C177.196 26.3153 178.348 25.9193 178.744 25.9193L178.924 25.9553C179.104 26.0633 179.14 26.3153 179.392 26.4953C179.464 26.5313 179.572 26.5673 179.68 26.5673C179.86 26.5673 179.968 26.5673 180.04 26.5313C180.148 26.5313 180.508 26.3153 180.904 26.2073L181.156 26.1713C181.408 26.1713 181.336 26.4593 181.552 26.6393C181.66 25.4513 181.732 24.2633 181.876 23.0033L181.984 22.1393L188.716 20.7353L189.544 21.9953C190.228 23.1113 191.02 24.1193 192.028 24.9833C192.1 24.8753 192.1 24.8393 192.208 24.7313C192.388 24.6233 192.46 24.5153 192.496 24.3713C192.496 24.1913 192.532 24.0113 192.568 23.7593C192.604 23.5793 192.676 23.4353 192.82 23.2913C192.856 23.2553 192.892 23.2553 193 23.2553L193.396 23.2913C193.792 23.2913 193.864 22.9673 193.972 22.8593C193.972 22.7513 194.008 22.6433 194.08 22.5353C194.116 22.3913 194.26 22.1753 194.368 21.9953C194.512 21.8153 194.548 21.7433 194.692 21.7073C194.728 21.6713 194.764 21.6713 194.872 21.6713C194.908 21.6713 195.016 21.7073 195.124 21.7793C194.44 21.0953 193.756 20.3393 193.108 19.4393ZM182.884 17.3513L183.352 15.1913C183.64 14.0393 183.64 12.5633 183.856 11.4473L184.468 8.20726C184.756 9.32326 185.008 11.9153 185.404 13.0313C185.584 13.7153 185.836 14.3633 186.088 15.0833L186.772 16.6673C186.376 16.7393 185.98 16.8113 185.584 16.9193C184.648 17.0993 183.784 17.2073 182.884 17.3513ZM260.976 3.05926C260.868 3.05926 260.796 3.41926 260.76 4.17526C260.616 3.92326 260.4 3.92326 260.292 3.49126V1.61926C260.22 1.43926 260.184 1.36726 260.148 1.36726C260.04 1.36726 259.968 1.72726 259.824 1.90726C259.716 2.05126 259.608 2.12326 259.464 2.12326L258.996 2.05126C258.528 2.05126 257.952 1.79926 257.412 1.79926C257.232 1.79926 257.052 1.83526 256.872 1.90726L256.656 4.93126C254.712 7.27126 250.068 12.0953 247.476 15.1193L247.548 6.83926C247.548 5.86726 247.548 5.00326 247.584 4.10326C247.62 3.77926 247.62 3.49126 247.62 3.16726V0.611262C247.26 1.07926 247.368 2.19526 247.26 3.23926C247.116 3.05926 246.864 2.98726 246.756 2.51926V1.22326L246.792 0.971261L246.756 0.791261C246.72 0.611262 246.684 0.53926 246.648 0.53926C246.54 0.53926 246.468 0.89926 246.36 1.07926C246.252 1.18726 246.144 1.25926 246 1.25926L243.948 0.935262C243.768 0.935262 243.588 0.971261 243.408 1.04326C243.264 4.46326 243.084 7.81126 243.084 11.1593C243.084 13.2833 243.084 15.3353 243.12 17.3873C243.156 19.8353 243.156 22.2113 243.264 24.6233C243.372 24.5873 243.444 24.5513 243.48 24.5513L243.804 24.5873C243.876 24.5873 243.912 24.5873 243.948 24.5513C244.236 24.2993 244.596 24.0113 244.884 24.0113C245.172 24.1193 245.28 24.4073 245.46 24.5153C245.568 24.5513 245.64 24.5873 245.712 24.5873C245.856 24.5873 245.964 24.5513 246.108 24.5153C246.216 24.4793 246.792 24.1193 247.224 24.1193C247.476 24.1193 247.44 24.5153 247.656 24.5513L247.548 22.1033C248.304 20.9513 251.436 17.6393 256.152 11.6993L255.648 18.6473C255.468 21.1313 255.36 23.6153 255.36 26.1713C255.396 26.1353 255.504 26.0993 255.612 26.0993L255.936 26.1353C255.972 26.1353 256.008 26.1353 256.044 26.0993C256.368 25.8473 256.656 25.5233 256.98 25.5233L257.088 25.5593C257.268 25.6673 257.34 25.9553 257.592 26.0993C257.7 26.1353 257.772 26.1713 257.808 26.1713C257.88 26.1713 258.024 26.1353 258.204 26.0993C258.312 26.0993 258.636 25.8473 259.032 25.7033C259.14 25.7033 259.176 25.6673 259.284 25.6673C259.608 25.6673 259.536 26.0633 259.752 26.2073V22.3553C259.752 20.4833 259.932 18.6473 260.112 16.7753C260.364 14.7593 260.58 12.8513 260.724 10.7993C260.868 8.92726 260.94 7.05526 261.084 5.07526C261.084 4.96726 261.12 4.60726 261.12 4.21126C261.12 3.45526 261.084 3.05926 260.976 3.05926Z" fill="#D31900"/>
<path d="M150.919 8.56726L150.883 8.02726C150.811 7.45126 150.703 7.09126 150.487 6.65926C150.343 6.15526 150.127 5.65126 149.803 5.21926C149.515 4.78726 149.119 4.35526 148.759 4.10326C148.435 3.81526 148.075 3.56326 147.643 3.38326C147.319 3.13126 146.923 2.95126 146.527 2.84326C145.771 2.48326 144.979 2.44726 144.331 2.33926C143.575 2.26726 142.927 2.26726 142.243 2.26726C141.559 2.30326 140.875 2.30326 140.299 2.41126C139.399 2.48326 138.607 2.62726 137.887 2.84326C136.879 3.02326 135.295 3.34726 135.223 3.49126L133.819 3.56326L133.891 7.09126C133.927 7.52326 133.963 7.84726 133.963 8.09926V9.17926C133.963 10.5113 133.927 11.8073 133.855 13.2473V22.2113C133.855 23.2553 133.819 24.1913 133.855 25.2713C133.855 25.6313 133.891 26.0633 133.891 26.5313C134.179 26.3513 134.503 26.5673 134.719 26.3513C135.115 26.0993 135.403 25.7753 135.835 25.8833C136.087 25.8833 136.231 26.2433 136.411 26.3873C136.699 26.4953 136.915 26.3873 137.167 26.3513C137.275 26.3513 138.175 25.5593 138.715 26.3873C138.463 25.2353 138.355 24.1553 138.283 22.8953C138.247 22.4273 138.283 22.0673 138.211 21.7793V21.2753C138.139 20.9153 138.175 20.5913 138.175 20.1233C138.175 19.2953 138.211 18.3953 138.247 17.5673H138.319C139.111 17.4233 139.975 17.3153 140.875 17.0993C142.099 16.7753 143.251 16.5593 144.475 16.0553C145.123 15.8393 145.771 15.6593 146.383 15.2633C146.995 15.0113 147.571 14.6873 148.291 14.1833C148.543 13.8953 148.795 13.6793 149.155 13.3553C149.551 12.9953 149.803 12.6353 150.091 12.1673C150.307 11.8073 150.523 11.3393 150.667 10.7993C150.883 10.2953 150.919 9.79126 150.955 9.32326V8.89126L150.919 8.56726ZM146.311 9.35926L146.239 9.64726L146.095 9.86326C145.879 10.1873 145.555 10.4753 145.051 10.7993C144.763 11.0513 144.367 11.3033 143.791 11.4833C143.071 11.7353 142.459 12.0593 141.919 12.1673C141.055 12.4193 140.407 12.5993 139.795 12.6713L138.535 12.8873V10.6913C138.535 9.57526 138.535 8.45926 138.499 7.37926V7.34326C139.111 7.23526 139.723 7.09126 140.299 7.05526C140.659 6.94726 141.055 6.87526 141.487 6.83926H143.107C143.647 6.87526 144.043 6.94726 144.367 7.05526C144.619 7.12726 144.907 7.19926 145.375 7.37926L146.203 8.27926L146.311 8.81926L146.347 9.17926L146.311 9.35926Z" fill="#FCB80A"/>
<path d="M214.61 4.17526C214.466 3.92326 214.25 3.92326 214.142 3.49126V1.61926C214.07 1.43926 214.034 1.36726 213.998 1.36726C213.89 1.36726 213.818 1.72726 213.674 1.90726C213.566 2.05126 213.458 2.12326 213.314 2.12326L212.846 2.05126C212.378 2.05126 211.802 1.79926 211.262 1.79926C211.082 1.79926 210.902 1.83526 210.722 1.90726C210.614 4.96726 210.362 7.95526 210.074 10.9793C209.534 10.9793 209.03 11.0153 206.33 10.9433L202.478 10.8353V6.83926C202.478 5.86726 202.478 5.00326 202.514 4.10326C202.55 3.77926 202.55 3.49126 202.55 3.16726V0.611262C202.19 1.07926 202.298 2.19526 202.19 3.23926C202.046 3.05926 201.794 2.98726 201.686 2.51926V1.22326L201.722 0.971261L201.686 0.791261C201.65 0.611262 201.614 0.53926 201.578 0.53926C201.47 0.53926 201.398 0.89926 201.29 1.07926C201.182 1.18726 201.074 1.25926 200.93 1.25926L198.878 0.935262C198.698 0.935262 198.518 0.971261 198.338 1.04326C198.194 4.46326 198.014 7.81126 198.014 11.1593C198.014 13.2833 198.014 15.3353 198.05 17.3873C198.086 19.8353 198.086 22.2113 198.194 24.6233C198.302 24.5873 198.374 24.5513 198.41 24.5513L198.734 24.5873C198.806 24.5873 198.842 24.5873 198.878 24.5513C199.166 24.2993 199.526 24.0113 199.814 24.0113C200.102 24.1193 200.21 24.4073 200.39 24.5153C200.498 24.5513 200.57 24.5873 200.642 24.5873C200.786 24.5873 200.894 24.5513 201.038 24.5153C201.146 24.4793 201.722 24.1193 202.154 24.1193C202.406 24.1193 202.37 24.5153 202.586 24.5513L202.406 20.8073C202.37 19.9073 202.37 19.0073 202.37 18.1073V14.5793H209.786L209.498 18.6473C209.318 21.1313 209.21 23.6153 209.21 26.1713C209.246 26.1353 209.354 26.0993 209.462 26.0993L209.786 26.1353C209.822 26.1353 209.858 26.1353 209.894 26.0993C210.218 25.8473 210.506 25.5233 210.83 25.5233L210.938 25.5593C211.118 25.6673 211.19 25.9553 211.442 26.0993C211.55 26.1353 211.622 26.1713 211.658 26.1713C211.73 26.1713 211.874 26.1353 212.054 26.0993C212.162 26.0993 212.486 25.8473 212.882 25.7033C212.99 25.7033 213.026 25.6673 213.134 25.6673C213.458 25.6673 213.386 26.0633 213.602 26.2073V22.3553C213.602 20.4833 213.782 18.6473 213.962 16.7753C214.214 14.7593 214.43 12.8513 214.574 10.7993C214.718 8.92726 214.79 7.05526 214.934 5.07526C214.934 4.96726 214.97 4.60726 214.97 4.21126C214.97 3.45526 214.934 3.05926 214.826 3.05926C214.718 3.05926 214.646 3.41926 214.61 4.17526Z" fill="#FCB80A"/>
</svg>
