<svg display="none" xmlns="http://www.w3.org/2000/svg">
    <symbol id="facebook" viewBox="0 0 27 26">
        <g>
            <path d="M26.125 13C26.125 20.1797 20.2767 26 13.0625 26C5.84828 26 0 20.1797 0 13C0 5.8203 5.84828 0 13.0625 0C20.2767 0 26.125 5.8203 26.125 13ZM14.0153 13.509H16.3462L16.6547 10.5252H14.0155V8.76745C14.0155 8.10816 14.4533 7.95336 14.7646 7.95336H16.6626V5.05433L14.0468 5.04343C11.1436 5.04343 10.4839 7.20763 10.4839 8.58971V10.5224H8.80434V13.509H10.4839V22.0073H14.0153V13.509Z"/>
        </g>
    </symbol>

    <symbol id="twitter" viewBox="0 0 27 26">
        <g>
            <path fill-rule="evenodd" clip-rule="evenodd" d="M26.1248 12.9999C26.1248 20.1795 20.2766 25.9998 13.0624 25.9998C5.84829 25.9998 6.10352e-05 20.1795 6.10352e-05 12.9999C6.10352e-05 5.82025 5.84829 0 13.0624 0C20.2766 0 26.1248 5.82025 26.1248 12.9999ZM19.2703 9.83121C19.9017 9.7566 20.5039 9.58951 21.0637 9.34249C20.6452 9.96562 20.116 10.5127 19.5054 10.9507C19.5115 11.0837 19.5145 11.2179 19.5145 11.3526C19.5145 15.4591 16.3738 20.194 10.6308 20.194C8.86771 20.194 7.22613 19.6797 5.8451 18.7977C6.08889 18.8267 6.33804 18.8413 6.58952 18.8413C8.05274 18.8413 9.39884 18.3447 10.4676 17.5112C9.10103 17.4859 7.94819 16.5875 7.55095 15.3532C7.74142 15.3894 7.93678 15.4086 8.13843 15.4086C8.42274 15.4086 8.69913 15.3708 8.96085 15.2995C7.53279 15.0142 6.45609 13.7584 6.45609 12.2528C6.45609 12.2399 6.45609 12.2267 6.45633 12.2135C6.87708 12.4468 7.35885 12.5865 7.87042 12.6025C7.03309 12.0454 6.48147 11.0939 6.48147 10.0161C6.48147 9.44677 6.63562 8.91262 6.90433 8.45378C8.44439 10.3343 10.7452 11.5713 13.3401 11.7009C13.2865 11.4733 13.2588 11.2362 13.2588 10.9927C13.2588 9.2769 14.657 7.88533 16.3811 7.88533C17.2796 7.88533 18.0911 8.2626 18.6607 8.86627C19.3715 8.727 20.0401 8.46861 20.6434 8.11243C20.4098 8.83846 19.915 9.44677 19.2703 9.83121Z"/>
        </g>
    </symbol>

    <symbol id="instagram" viewBox="0 0 27 26">
        <g>
            <path d="M16.9553 6.91736H9.16883C7.926 6.91736 6.91486 7.92366 6.91486 9.16055V16.9097C6.91486 18.1466 7.926 19.1532 9.16883 19.1532H16.9553C18.1981 19.1532 19.2095 18.1469 19.2095 16.9097V9.16055C19.2095 7.92366 18.1984 6.91736 16.9553 6.91736ZM13.0621 17.0633C10.8305 17.0633 9.01486 15.2563 9.01486 13.0351C9.01486 10.8143 10.8305 9.00731 13.0621 9.00731C15.2939 9.00731 17.1095 10.8143 17.1095 13.0351C17.1095 15.256 15.2936 17.0633 13.0621 17.0633ZM17.2396 9.84011C16.7114 9.84011 16.2818 9.41256 16.2818 8.8871C16.2818 8.36164 16.7114 7.93409 17.2396 7.93409C17.7676 7.93409 18.1972 8.36164 18.1972 8.8871C18.1972 9.41256 17.7676 9.84011 17.2396 9.84011Z"/>
            <path d="M13.0622 10.7095C11.774 10.7095 10.725 11.7529 10.725 13.0349C10.725 14.3176 11.774 15.3612 13.0622 15.3612C14.351 15.3612 15.3991 14.3176 15.3991 13.0349C15.3991 11.7531 14.3507 10.7095 13.0622 10.7095Z"/>
            <path d="M13.0625 0C5.84857 0 0 5.82058 0 13C0 20.1794 5.84857 26 13.0625 26C20.2764 26 26.125 20.1794 26.125 13C26.125 5.82058 20.2764 0 13.0625 0ZM20.92 16.9096C20.92 19.0853 19.1419 20.8549 16.9557 20.8549H9.16928C6.98341 20.8549 5.20503 19.0853 5.20503 16.9096V9.16045C5.20503 6.98505 6.98341 5.21518 9.16928 5.21518H16.9557C19.1419 5.21518 20.92 6.98505 20.92 9.16045V16.9096Z"/>
        </g>
    </symbol>

    <symbol id="youtube" viewBox="0 0 27 26">
        <g clip-path="url(#clip0)">
            <path d="M11.4354 15.4355L15.6845 13L11.4354 10.5645V15.4355Z"/>
            <path d="M13.0625 0C5.84938 0 0 5.8214 0 13C0 20.1786 5.84938 26 13.0625 26C20.2756 26 26.125 20.1786 26.125 13C26.125 5.8214 20.2756 0 13.0625 0ZM21.2246 13.0133C21.2246 13.0133 21.2246 15.6497 20.8885 16.9211C20.7002 17.6169 20.1488 18.1656 19.4496 18.3529C18.1722 18.6875 13.0625 18.6875 13.0625 18.6875C13.0625 18.6875 7.96614 18.6875 6.67536 18.3396C5.97615 18.1523 5.42484 17.6034 5.23648 16.9076C4.90023 15.6497 4.90023 13 4.90023 13C4.90023 13 4.90023 10.3637 5.23648 9.09242C5.42464 8.39656 5.9895 7.8344 6.67536 7.64714C7.95279 7.3125 13.0625 7.3125 13.0625 7.3125C13.0625 7.3125 18.1722 7.3125 19.4496 7.66043C20.1488 7.84769 20.7002 8.39656 20.8885 9.09242C21.2381 10.3637 21.2246 13.0133 21.2246 13.0133Z"/>
        </g>
    </symbol>
</svg>
